<svg width="12" height="12" viewBox="0 0 12 12" fill="none" xmlns="http://www.w3.org/2000/svg">
<path d="M5.46178 8.80865C5.49968 8.90001 5.50964 9.00055 5.49039 9.09756C5.47114 9.19457 5.42356 9.28369 5.35366 9.35365L3.35366 11.3537C3.30722 11.4001 3.25207 11.437 3.19138 11.4622C3.13068 11.4873 3.06561 11.5003 2.99991 11.5003C2.9342 11.5003 2.86913 11.4873 2.80844 11.4622C2.74774 11.437 2.69259 11.4001 2.64616 11.3537L0.646155 9.35365C0.57615 9.28373 0.528466 9.1946 0.509141 9.09756C0.489816 9.00052 0.499718 8.89992 0.537594 8.80851C0.57547 8.7171 0.639618 8.63898 0.721914 8.58405C0.804211 8.52911 0.900958 8.49983 0.999906 8.4999H2.49991V0.999905C2.49991 0.867297 2.55258 0.74012 2.64635 0.646352C2.74012 0.552584 2.8673 0.499905 2.99991 0.499905C3.13251 0.499905 3.25969 0.552584 3.35346 0.646352C3.44723 0.74012 3.49991 0.867297 3.49991 0.999905V8.4999H4.99991C5.0988 8.49992 5.19546 8.52927 5.27767 8.58423C5.35989 8.63918 5.42396 8.71729 5.46178 8.80865Z" fill="white"/>
<path d="M11.3537 2.64615L9.35366 0.646155C9.30722 0.599667 9.25208 0.562787 9.19138 0.537625C9.13068 0.512463 9.06561 0.499512 8.99991 0.499512C8.9342 0.499512 8.86914 0.512463 8.80844 0.537625C8.74774 0.562787 8.69259 0.599667 8.64616 0.646155L6.64616 2.64615C6.57615 2.71608 6.52847 2.80521 6.50914 2.90225C6.48982 2.99929 6.49972 3.09989 6.5376 3.1913C6.57547 3.28271 6.63962 3.36083 6.72192 3.41577C6.80421 3.4707 6.90096 3.49998 6.99991 3.49991H8.49991V10.9999C8.49991 11.1325 8.55258 11.2597 8.64635 11.3535C8.74012 11.4472 8.8673 11.4999 8.99991 11.4999C9.13251 11.4999 9.25969 11.4472 9.35346 11.3535C9.44723 11.2597 9.49991 11.1325 9.49991 10.9999V3.49991H10.9999C11.0989 3.49998 11.1956 3.4707 11.2779 3.41577C11.3602 3.36083 11.4243 3.28271 11.4622 3.1913C11.5001 3.09989 11.51 2.99929 11.4907 2.90225C11.4713 2.80521 11.4237 2.71608 11.3537 2.64615Z" fill="#1EB53A"/>
</svg>
