<?xml version="1.0" encoding="UTF-8"?>
<svg width="24" height="24" viewBox="0 0 24 24" fill="none" xmlns="http://www.w3.org/2000/svg">
  <path d="M18.7305 12.3223C18.7181 10.5289 19.6106 9.24996 21.4127 8.32332C20.4073 6.84537 18.8788 6.05154 16.9178 5.94092C15.0629 5.83337 13.0477 7.02134 12.3289 7.02134C11.5697 7.02134 9.76595 5.98736 8.32686 5.98736C5.58764 6.02767 2.6875 8.12481 2.6875 12.3825C2.6875 13.6636 2.93716 14.9823 3.43647 16.3388C4.10162 18.0768 6.34568 22.3125 8.67616 22.2422C9.94705 22.2121 10.8501 21.3256 12.4858 21.3256C14.0777 21.3256 14.9063 22.2422 16.3161 22.2422C18.6698 22.207 20.687 18.356 21.3125 16.6158C17.9861 15.0427 18.7305 12.3928 18.7305 12.3223ZM15.6731 3.75C17.1202 1.98125 16.9692 0.9375 16.9241 0.9375C15.531 1.00699 13.9142 1.97637 13.1477 3.11255C12.4658 4.11648 12.0326 5.25879 12.1554 5.92316C13.6249 5.99805 14.7735 4.82935 15.6731 3.75Z" fill="black"/>
</svg>