<svg width="28" height="27" viewBox="0 0 28 27" fill="none" xmlns="http://www.w3.org/2000/svg">
<path d="M13.694 21.9145L7.05564 25.9135C6.76238 26.1001 6.45579 26.1801 6.13587 26.1535C5.81595 26.1268 5.53602 26.0202 5.29608 25.8335C5.05614 25.6469 4.86952 25.4139 4.73622 25.1345C4.60292 24.8551 4.57626 24.5416 4.65624 24.194L6.4158 16.6358L0.537267 11.5571C0.270667 11.3172 0.104309 11.0436 0.0381917 10.7365C-0.0279251 10.4294 -0.00819677 10.1297 0.0973768 9.83754C0.20295 9.54535 0.36291 9.30541 0.577257 9.11772C0.791603 8.93003 1.08486 8.81006 1.45704 8.75781L9.2151 8.07798L12.2143 0.95976C12.3476 0.63984 12.5545 0.3999 12.835 0.23994C13.1155 0.0799798 13.4018 0 13.694 0C13.9862 0 14.2725 0.0799798 14.553 0.23994C14.8334 0.3999 15.0403 0.63984 15.1736 0.95976L18.1729 8.07798L25.9309 8.75781C26.3042 8.81113 26.5974 8.9311 26.8107 9.11772C27.024 9.30434 27.1839 9.54428 27.2906 9.83754C27.3972 10.1308 27.4175 10.431 27.3514 10.7381C27.2852 11.0452 27.1184 11.3182 26.8507 11.5571L20.9722 16.6358L22.7317 24.194C22.8117 24.5405 22.785 24.8541 22.6517 25.1345C22.5184 25.415 22.3318 25.648 22.0919 25.8335C21.8519 26.0191 21.572 26.1257 21.2521 26.1535C20.9322 26.1812 20.6256 26.1012 20.3323 25.9135L13.694 21.9145Z" fill="white"/>
</svg>
