<svg width="39" height="39" viewBox="0 0 39 39" fill="none" xmlns="http://www.w3.org/2000/svg">
<path d="M12.2068 29.059C12.2068 29.9 11.8727 30.7065 11.278 31.3012C10.6833 31.8959 9.87679 32.23 9.03578 32.23C8.19477 32.23 7.3882 31.8959 6.79352 31.3012C6.19884 30.7065 5.86475 29.9 5.86475 29.059C5.86475 28.218 6.19884 27.4114 6.79352 26.8167C7.3882 26.222 8.19477 25.8879 9.03578 25.8879C9.87679 25.8879 10.6833 26.222 11.278 26.8167C11.8727 27.4114 12.2068 28.218 12.2068 29.059Z" fill="white"/>
<path fill-rule="evenodd" clip-rule="evenodd" d="M8.99514 10.9081C7.93285 10.9081 7.02118 11.2252 6.37905 11.6786C5.76069 12.1162 5.45469 12.6252 5.3659 13.0644C5.23471 13.6514 4.87864 14.1637 4.37411 14.4912C3.86957 14.8188 3.25674 14.9355 2.66711 14.8164C2.07747 14.6974 1.558 14.3519 1.22014 13.8542C0.882275 13.3565 0.752935 12.7462 0.859867 12.1543C1.21978 10.369 2.32647 8.91189 3.72806 7.92094C5.18674 6.89036 7.03545 6.31006 8.99514 6.31006C13.0493 6.31006 17.2525 9.02129 17.2525 13.3751C17.2525 15.8961 15.7542 17.9351 13.8135 19.1242C13.2934 19.4425 12.668 19.5412 12.0751 19.3984C11.4822 19.2557 10.9703 18.8833 10.652 18.3631C10.3337 17.843 10.235 17.2177 10.3778 16.6248C10.5205 16.0319 10.8929 15.5199 11.4131 15.2016C12.3168 14.6483 12.6545 13.9427 12.6545 13.3751C12.6545 12.465 11.5209 10.9081 8.99514 10.9081Z" fill="white"/>
<path fill-rule="evenodd" clip-rule="evenodd" d="M8.99333 17.0361C10.2617 17.0361 11.2923 18.0635 11.2923 19.3351V21.7166C11.2923 22.3263 11.0501 22.9111 10.619 23.3422C10.1878 23.7734 9.60306 24.0156 8.99333 24.0156C8.3836 24.0156 7.79884 23.7734 7.3677 23.3422C6.93655 22.9111 6.69434 22.3263 6.69434 21.7166V19.3351C6.69434 18.0667 7.72333 17.0361 8.99333 17.0361Z" fill="white"/>
<path fill-rule="evenodd" clip-rule="evenodd" d="M14.5887 15.9831C14.744 16.2423 14.8466 16.5296 14.8909 16.8285C14.9351 17.1273 14.9199 17.432 14.8463 17.7251C14.7727 18.0181 14.642 18.2937 14.4618 18.5362C14.2815 18.7787 14.0553 18.9833 13.7959 19.1383L10.1746 21.3057C9.65147 21.619 9.02534 21.7116 8.43393 21.5633C7.84252 21.4149 7.33427 21.0376 7.02099 20.5145C6.70772 19.9914 6.61508 19.3653 6.76345 18.7739C6.91182 18.1825 7.28906 17.6742 7.81216 17.361L11.4351 15.192C11.6942 15.0369 11.9813 14.9344 12.28 14.8903C12.5787 14.8463 12.8832 14.8615 13.1761 14.9351C13.4689 15.0087 13.7444 15.1393 13.9868 15.3194C14.2291 15.4995 14.4337 15.724 14.5887 15.9831Z" fill="white"/>
<path d="M31.5178 29.059C31.5178 29.9 31.1838 30.7065 30.5891 31.3012C29.9944 31.8959 29.1878 32.23 28.3468 32.23C27.5058 32.23 26.6992 31.8959 26.1046 31.3012C25.5099 30.7065 25.1758 29.9 25.1758 29.059C25.1758 28.218 25.5099 27.4114 26.1046 26.8167C26.6992 26.222 27.5058 25.8879 28.3468 25.8879C29.1878 25.8879 29.9944 26.222 30.5891 26.8167C31.1838 27.4114 31.5178 28.218 31.5178 29.059Z" fill="white"/>
<path fill-rule="evenodd" clip-rule="evenodd" d="M28.3037 10.9081C27.2414 10.9081 26.3298 11.2252 25.6876 11.6786C25.0693 12.1162 24.7633 12.6252 24.6745 13.0644C24.5433 13.6514 24.1872 14.1637 23.6827 14.4912C23.1782 14.8188 22.5653 14.9355 21.9757 14.8164C21.3861 14.6974 20.8666 14.3519 20.5287 13.8542C20.1909 13.3565 20.0615 12.7462 20.1685 12.1543C20.5284 10.369 21.6351 8.91189 23.0367 7.92094C24.4953 6.89036 26.344 6.31006 28.3037 6.31006C32.3579 6.31006 36.5611 9.02129 36.5611 13.3751C36.5611 15.8961 35.0628 17.9351 33.1221 19.1242C32.602 19.4425 31.9766 19.5412 31.3837 19.3984C30.7908 19.2557 30.2789 18.8833 29.9606 18.3631C29.6423 17.843 29.5436 17.2177 29.6864 16.6248C29.8291 16.0319 30.2015 15.5199 30.7216 15.2016C31.6254 14.6483 31.9631 13.9427 31.9631 13.3751C31.9631 12.465 30.8295 10.9081 28.3037 10.9081Z" fill="white"/>
<path fill-rule="evenodd" clip-rule="evenodd" d="M28.3044 17.0361C29.5728 17.0361 30.6034 18.0635 30.6034 19.3351V21.7166C30.6034 22.3263 30.3611 22.9111 29.93 23.3422C29.4989 23.7734 28.9141 24.0156 28.3044 24.0156C27.6946 24.0156 27.1099 23.7734 26.6787 23.3422C26.2476 22.9111 26.0054 22.3263 26.0054 21.7166V19.3351C26.0054 18.0667 27.0344 17.0361 28.3044 17.0361Z" fill="white"/>
<path fill-rule="evenodd" clip-rule="evenodd" d="M33.8997 15.9831C34.055 16.2423 34.1577 16.5296 34.2019 16.8285C34.2461 17.1273 34.231 17.432 34.1573 17.7251C34.0837 18.0181 33.953 18.2937 33.7728 18.5362C33.5926 18.7787 33.3663 18.9833 33.1069 19.1383L29.4856 21.3057C28.9625 21.619 28.3364 21.7116 27.745 21.5633C27.1536 21.4149 26.6453 21.0376 26.332 20.5145C26.0188 19.9914 25.9261 19.3653 26.0745 18.7739C26.2229 18.1825 26.6001 17.6742 27.1232 17.361L30.7461 15.192C31.0052 15.0369 31.2923 14.9344 31.5911 14.8903C31.8898 14.8463 32.1943 14.8615 32.4871 14.9351C32.78 15.0087 33.0554 15.1393 33.2978 15.3194C33.5402 15.4995 33.7447 15.724 33.8997 15.9831Z" fill="white"/>
</svg>
