<svg width="29" height="24" viewBox="0 0 29 24" fill="none" xmlns="http://www.w3.org/2000/svg">
<path d="M9.73438 1.64062C11.7775 1.64063 13.452 3.31528 13.4521 5.3584L14.7646 5.36035C14.7677 4.37481 15.1606 3.43032 15.8574 2.7334C16.5109 2.07993 17.3822 1.69363 18.3008 1.64551L18.4854 1.64062H26.5771V16.0771H18.4834C17.2749 16.0771 16.3244 16.3812 15.5898 16.8711C14.8918 17.3366 14.424 17.9465 14.1113 18.5449C13.8027 17.9482 13.3426 17.3384 12.6533 16.873C11.926 16.382 10.9847 16.0771 9.78809 16.0771H1.64062V1.64062H9.73438Z" fill="white" fill-opacity="0.16" stroke="white" stroke-width="1.31243"/>
<path d="M14.1087 5.35871C14.1087 2.95302 12.14 0.984375 9.73436 0.984375H0.984375V16.7336H9.78817C14.1087 16.7336 14.1087 21.1092 14.1087 21.1092M14.1087 5.35871C14.1087 2.95171 16.0773 0.984375 18.483 0.984375H27.233V16.7336H18.483C14.1087 16.7336 14.1087 21.1092 14.1087 21.1092M14.1087 5.35871V21.1092V5.35871ZM16.5695 22.5844C16.8433 22.0172 17.2699 21.5377 17.8013 21.1997C18.3327 20.8616 18.9478 20.6785 19.5776 20.6709H25.9206M11.6479 22.5844C11.379 22.0134 10.9536 21.5304 10.4211 21.1917C9.88862 20.853 9.2709 20.6723 8.63979 20.6709H2.29681" fill="white" fill-opacity="0.16"/>
<path d="M14.1087 5.35871C14.1087 2.95302 12.14 0.984375 9.73436 0.984375H0.984375V16.7336H9.78817C14.1087 16.7336 14.1087 21.1092 14.1087 21.1092M14.1087 5.35871C14.1087 2.95171 16.0773 0.984375 18.483 0.984375H27.233V16.7336H18.483C14.1087 16.7336 14.1087 21.1092 14.1087 21.1092M14.1087 5.35871V21.1092M16.5695 22.5844C16.8433 22.0172 17.2699 21.5377 17.8013 21.1997C18.3327 20.8616 18.9478 20.6785 19.5776 20.6709H25.9206M11.6479 22.5844C11.379 22.0134 10.9536 21.5304 10.4211 21.1917C9.88862 20.853 9.2709 20.6723 8.63979 20.6709H2.29681" stroke="white" stroke-width="1.96865" stroke-miterlimit="10" stroke-linecap="round" stroke-linejoin="round"/>
</svg>
