<svg width="15" height="34" viewBox="0 0 15 34" fill="none" xmlns="http://www.w3.org/2000/svg">
<path d="M0 22.2312C0 23.0268 0.31607 23.7899 0.87868 24.3525C1.44129 24.9151 2.20435 25.2312 3 25.2312C3.79565 25.2312 4.55871 24.9151 5.12132 24.3525C5.68393 23.7899 6 23.0268 6 22.2312L6 3C6 2.20435 5.68393 1.44129 5.12132 0.87868C4.55871 0.31607 3.79565 0 3 0C2.20435 0 1.44129 0.31607 0.87868 0.87868C0.31607 1.44129 0 2.20435 0 3L0 22.2312ZM0 30.5316C0 32.2236 1.38 33.6036 3.072 33.6036C4.764 33.6036 6.144 32.2236 6.144 30.5316C6.144 28.8396 4.764 27.4596 3.072 27.4596C1.38 27.4596 0 28.8396 0 30.5316ZM11.472 33.6036C9.78 33.6036 8.4 32.2236 8.4 30.5316C8.4 28.8396 9.78 27.4596 11.472 27.4596C13.164 27.4596 14.544 28.8396 14.544 30.5316C14.544 32.2236 13.164 33.6036 11.472 33.6036ZM8.4 22.2312C8.4 23.0268 8.71607 23.7899 9.27868 24.3525C9.84129 24.9151 10.6044 25.2312 11.4 25.2312C12.1956 25.2312 12.9587 24.9151 13.5213 24.3525C14.0839 23.7899 14.4 23.0268 14.4 22.2312L14.4 3C14.4 2.20435 14.0839 1.44129 13.5213 0.87868C12.9587 0.31607 12.1956 0 11.4 0C10.6044 0 9.84129 0.31607 9.27868 0.87868C8.71607 1.44129 8.4 2.20435 8.4 3L8.4 22.2312Z" fill="white"/>
</svg>
