<svg width="24" height="24" viewBox="0 0 24 24" fill="none" xmlns="http://www.w3.org/2000/svg">
<g clip-path="url(#clip0_7535_77860)">
<path d="M7.49902 5.99951V0.999512M17.499 5.99951V0.999512M21.499 16.9995V18.4995C21.499 20.1564 20.1559 21.4995 18.499 21.4995H6.49902C4.84217 21.4995 3.49902 20.1564 3.49902 18.4995M21.362 8.49951H3.35102M18.549 18.2495L18.783 17.7585C20.5712 14.0002 21.499 9.89053 21.499 5.72851C21.499 4.49747 20.5011 3.49951 19.27 3.49951H5.62702C4.45176 3.49951 3.49902 4.45225 3.49902 5.62751C3.49906 9.82169 2.55687 13.9623 0.742023 17.7435L0.519094 18.2077C0.505883 18.2352 0.499023 18.2654 0.499023 18.2959C0.499023 18.4083 0.590195 18.4995 0.702661 18.4995H18.1075C18.2884 18.4995 18.456 18.4046 18.549 18.2495Z" stroke="white" stroke-width="1.8"/>
</g>
<defs>
<clipPath id="clip0_7535_77860">
<rect width="24" height="24" fill="white"/>
</clipPath>
</defs>
</svg>
