<svg width="32" height="32" viewBox="0 0 32 32" fill="none" xmlns="http://www.w3.org/2000/svg">
<path d="M14.6667 10.6665H17.3334C21.1046 10.6665 22.9902 10.6665 24.1618 11.8381C25.3334 13.0097 25.3334 14.8953 25.3334 18.6665C25.3334 22.4377 25.3334 24.3233 24.1618 25.4949C22.9902 26.6665 21.1046 26.6665 17.3334 26.6665H16.0001C16.0001 26.6665 15.3334 29.3332 10.6667 29.3332C10.6667 29.3332 12.0001 27.9882 12.0001 26.6434C9.92881 26.581 8.69339 26.35 7.83832 25.4949C6.66675 24.3233 6.66675 22.4377 6.66675 18.6665C6.66675 14.8953 6.66675 13.0097 7.83832 11.8381C9.00989 10.6665 10.8955 10.6665 14.6667 10.6665Z" stroke="#1A1A1C" stroke-width="1.5" stroke-linejoin="round"/>
<path d="M25.3333 15.3335H25.9999C27.2461 15.3335 27.8691 15.3335 28.3333 15.6015C28.6373 15.777 28.8898 16.0295 29.0653 16.3335C29.3333 16.7976 29.3333 17.4207 29.3333 18.6668C29.3333 19.913 29.3333 20.536 29.0653 21.0002C28.8898 21.3042 28.6373 21.5567 28.3333 21.7322C27.8691 22.0002 27.2461 22.0002 25.9999 22.0002H25.3333" stroke="#1A1A1C" stroke-width="1.5" stroke-linejoin="round"/>
<path d="M6.66675 15.3335H6.00008C4.75392 15.3335 4.13085 15.3335 3.66675 15.6015C3.36271 15.777 3.11023 16.0295 2.93469 16.3335C2.66675 16.7976 2.66675 17.4207 2.66675 18.6668C2.66675 19.913 2.66675 20.536 2.93469 21.0002C3.11023 21.3042 3.36271 21.5567 3.66675 21.7322C4.13085 22.0002 4.75392 22.0002 6.00008 22.0002H6.66675" stroke="#1A1A1C" stroke-width="1.5" stroke-linejoin="round"/>
<path d="M18 4.6665C18 5.77108 17.1045 6.6665 16 6.6665C14.8955 6.6665 14 5.77108 14 4.6665C14 3.56193 14.8955 2.6665 16 2.6665C17.1045 2.6665 18 3.56193 18 4.6665Z" stroke="#1A1A1C" stroke-width="1.5"/>
<path d="M16 6.6665V10.6665" stroke="#1A1A1C" stroke-width="1.5" stroke-linecap="round" stroke-linejoin="round"/>
<path d="M12 16V17.3333M20 16V17.3333" stroke="#1A1A1C" stroke-width="1.5" stroke-linecap="round" stroke-linejoin="round"/>
<path d="M13.3333 22C13.3333 22 14.2222 22.6667 15.9999 22.6667C17.7777 22.6667 18.6666 22 18.6666 22" stroke="#1A1A1C" stroke-width="1.5" stroke-linecap="round"/>
</svg>
