<svg width="32" height="32" viewBox="0 0 32 32" fill="none" xmlns="http://www.w3.org/2000/svg">
<path d="M9.99316 16.4331C10.6309 16.4223 11.4305 16.3532 12.1963 16.3696C12.9658 16.3862 13.7315 16.4884 14.3242 16.8306C14.8739 17.1479 15.2305 17.6526 15.3926 18.2563C15.4358 18.4175 15.4732 18.7056 15.501 19.0493C15.5289 19.3953 15.5479 19.8042 15.5518 20.2095C15.5556 20.6146 15.5439 21.0187 15.5127 21.354C15.4971 21.5213 15.4762 21.6731 15.4492 21.8003C15.4225 21.9258 15.3885 22.0354 15.3428 22.1118C15.2142 22.3264 14.9798 22.4466 14.7451 22.5249C14.5262 22.5979 14.2836 22.6409 14.1016 22.6821C14.0036 22.859 13.9615 23.1373 13.9561 23.4868C13.9503 23.8523 13.9843 24.2774 14.0205 24.7114C14.0566 25.1434 14.0952 25.5842 14.0967 25.9731C14.0981 26.359 14.0639 26.7099 13.9443 26.9546L13.9355 26.9722L13.9199 26.9849C13.8207 27.0641 13.7447 27.1115 13.6582 27.1421C13.5742 27.1717 13.4844 27.1839 13.3652 27.1987L13.3525 27.1997V27.1987C13.1411 27.1953 12.8268 27.2087 12.4609 27.2231C12.0962 27.2375 11.6822 27.2535 11.2773 27.2554C10.873 27.2573 10.4744 27.2453 10.1396 27.2036C9.97222 27.1828 9.81876 27.1535 9.6875 27.1147C9.55739 27.0763 9.44352 27.0265 9.35938 26.9595L9.34961 26.9517L9.3418 26.9419C9.28137 26.8567 9.23742 26.7365 9.2041 26.5981C9.17041 26.4582 9.14652 26.2918 9.12891 26.1089C9.09368 25.7427 9.08504 25.3009 9.08984 24.854C9.09466 24.4068 9.1128 23.951 9.12988 23.5552C9.14505 23.2039 9.15754 22.9013 9.16211 22.6909C9.01051 22.6733 8.83133 22.657 8.66113 22.6255C8.45912 22.5881 8.25215 22.5279 8.09277 22.4126C7.94718 22.3072 7.84957 22.1466 7.78223 21.9819C7.7146 21.8165 7.67457 21.6388 7.64941 21.4888C7.5543 20.9211 7.50559 20.1698 7.56836 19.439C7.63093 18.7108 7.80518 17.9899 8.16406 17.4917C8.63034 16.8447 9.21555 16.5572 9.98145 16.4341L9.99316 16.4321V16.4331ZM11.6953 17.3325L11.6963 17.3335L10.0254 17.3677C9.54941 17.4622 9.17341 17.634 8.90137 18.0347C8.63842 18.4222 8.50523 19.022 8.46191 19.6528C8.41881 20.2811 8.46523 20.9264 8.55273 21.3921C8.5684 21.4753 8.58941 21.5322 8.61914 21.5786C8.64869 21.6246 8.69155 21.6666 8.76172 21.7114C8.78678 21.7274 8.82174 21.7395 8.86523 21.7485C8.89703 21.7551 8.92982 21.7583 8.96289 21.7622C9.03174 21.7102 9.07051 21.6738 9.0957 21.6323C9.12407 21.5855 9.14223 21.526 9.15918 21.4185C9.18127 21.2781 9.18061 21.0829 9.17188 20.856C9.16331 20.6335 9.14673 20.3778 9.14062 20.1333C9.13449 19.8872 9.13822 19.6414 9.1709 19.4292C9.20318 19.2196 9.2659 19.0273 9.38965 18.9019L9.40918 18.8813L9.43848 18.8765C9.52813 18.8626 9.59209 18.8574 9.65723 18.8716C9.71864 18.8849 9.77697 18.9155 9.85352 18.9536L9.88477 18.9692L9.89648 19.0015C9.93826 19.1125 9.97038 19.2962 9.99609 19.5259C10.0221 19.7584 10.0429 20.0466 10.0586 20.3716C10.09 21.0216 10.1024 21.8233 10.1035 22.6313C10.1057 24.1589 10.0639 25.7149 10.0283 26.3198L11.1885 26.3042C11.1539 25.881 11.0958 25.0493 11.0947 24.2417C11.0942 23.8057 11.1099 23.3743 11.1553 23.0171C11.178 22.8387 11.2079 22.6763 11.248 22.5405C11.2877 22.4064 11.3398 22.2899 11.4092 22.2095V22.2085C11.4161 22.2006 11.425 22.1913 11.4297 22.186L11.4639 22.1479L11.5127 22.1587C11.5338 22.1632 11.5507 22.166 11.5703 22.1694C11.5883 22.1726 11.6102 22.1762 11.6318 22.1841C11.6821 22.2024 11.7188 22.2361 11.7529 22.2886C11.8965 22.5097 11.9702 22.694 12.0039 22.8892C12.037 23.0811 12.0315 23.2799 12.0225 23.5239C12.0373 24.4348 12.0886 25.3822 12.0068 26.3022H13.1914C13.1536 25.7352 13.1035 24.1 13.0986 22.5259C13.0961 21.6877 13.1056 20.8649 13.1367 20.228C13.1523 19.9098 13.1736 19.6356 13.2012 19.4292C13.2149 19.3264 13.23 19.238 13.248 19.1685C13.2649 19.1035 13.2884 19.0396 13.3242 18.9995C13.3899 18.9261 13.4736 18.8704 13.5508 18.8276L13.5869 18.8071L13.625 18.8228C13.65 18.8325 13.6791 18.8429 13.6992 18.8511C13.7217 18.8603 13.746 18.8713 13.7686 18.8872C13.817 18.9214 13.8463 18.9693 13.875 19.0337C13.9634 19.2327 13.9964 19.475 14.0078 19.7271C14.0193 19.9797 14.0091 20.2536 14.0049 20.5142C14.0006 20.7773 14.0023 21.0287 14.0361 21.2476C14.0679 21.4524 14.1283 21.6186 14.2275 21.7388C14.243 21.7395 14.2572 21.7403 14.2676 21.7407C14.2889 21.7416 14.3016 21.7412 14.3115 21.7397C14.325 21.7377 14.3433 21.7326 14.3828 21.6948C14.4927 21.5896 14.5581 21.4232 14.5947 21.23C14.631 21.0383 14.6364 20.8331 14.6387 20.6626C14.6447 20.201 14.6651 19.6336 14.5967 19.0933C14.5281 18.5517 14.3721 18.0534 14.04 17.7222C13.8158 17.4987 13.4048 17.3941 12.9473 17.3511C12.4948 17.3086 12.0235 17.3276 11.6953 17.3325Z" fill="#45C86E" stroke="#45C86E" stroke-width="0.175"/>
<path d="M21.1992 16.4087C22.169 16.4014 23.2625 16.4439 24.0234 17.2046C24.5104 17.6914 24.6929 18.3147 24.7568 18.9575C24.8202 19.595 24.7673 20.2744 24.7705 20.8628C24.7717 21.0893 24.7808 21.3489 24.7441 21.5933C24.7071 21.8397 24.6229 22.082 24.4287 22.2749C24.0725 22.6287 23.6792 22.6325 23.2578 22.6294C23.2632 22.9126 23.2771 23.2328 23.292 23.5728C23.3084 23.9471 23.3259 24.3454 23.334 24.7407C23.3502 25.529 23.3296 26.3174 23.1846 26.8999L23.1797 26.9185L23.168 26.9331C23.0938 27.025 23.0391 27.0866 22.9668 27.1255C22.8962 27.1633 22.8138 27.1762 22.7012 27.1938L22.6934 27.1948H22.6855C21.715 27.1772 20.7505 27.22 19.7734 27.2202C19.6096 27.2202 19.3948 27.2258 19.1914 27.1978C18.9889 27.1698 18.7801 27.1065 18.6348 26.9575C18.5699 26.8908 18.5268 26.7788 18.4951 26.6519C18.4623 26.5203 18.4378 26.3562 18.4199 26.1724C18.3842 25.8044 18.3738 25.3452 18.375 24.8784C18.3762 24.4111 18.389 23.9335 18.4023 23.5278C18.414 23.1726 18.4243 22.8742 18.4277 22.6841C18.2777 22.6678 18.1082 22.6504 17.9443 22.6177C17.7513 22.5791 17.556 22.5186 17.3994 22.4087C17.0854 22.1882 16.9857 21.8355 16.9297 21.5054C16.8329 20.9344 16.7843 20.1781 16.8477 19.4419C16.9109 18.7079 17.0867 17.9808 17.4473 17.478C17.8954 16.8534 18.4664 16.5629 19.2041 16.4429L19.2109 16.4419H19.2119C19.8674 16.3949 20.5487 16.4136 21.1992 16.4087ZM21.3584 17.2876C21.0034 17.2815 20.642 17.2968 20.2988 17.3149C19.9619 17.3327 19.6403 17.3527 19.3643 17.3589C18.8447 17.4604 18.4638 17.6161 18.168 18.061C17.9062 18.4547 17.7691 19.0492 17.7227 19.6724C17.6764 20.2933 17.7207 20.9297 17.8115 21.397C17.8245 21.4639 17.8464 21.5307 17.873 21.5962C17.9504 21.6431 18.0012 21.6684 18.0527 21.6841C18.1025 21.6992 18.1568 21.7053 18.2412 21.7104C18.3158 21.6391 18.3622 21.5828 18.3906 21.52C18.4223 21.45 18.4373 21.3669 18.4434 21.2407C18.4504 21.0959 18.4413 20.9148 18.4277 20.7134C18.4143 20.5139 18.3972 20.2946 18.3896 20.0796C18.3821 19.8644 18.3838 19.649 18.4102 19.4546C18.4364 19.261 18.4879 19.0811 18.584 18.9419L18.5947 18.9253L18.6133 18.9155C18.6973 18.8697 18.7598 18.8425 18.8301 18.8403C18.8933 18.8384 18.96 18.8579 19.04 18.8765L19.0791 18.8853L19.0967 18.9214C19.148 19.0225 19.1867 19.1997 19.2168 19.4214C19.2474 19.6473 19.2706 19.9315 19.2891 20.2544C19.3259 20.9006 19.341 21.708 19.3418 22.5269C19.3434 24.0792 19.2922 25.6809 19.2441 26.3188L20.4551 26.2905C20.4175 25.8947 20.3661 25.0809 20.3633 24.2896C20.3617 23.8599 20.3743 23.4345 20.4111 23.0854C20.4295 22.9111 20.4537 22.7538 20.4863 22.6235C20.5184 22.4956 20.561 22.3845 20.6191 22.3101C20.6389 22.2848 20.6605 22.2635 20.6807 22.2446L20.7061 22.2202L20.7412 22.2212H20.832C20.8507 22.2222 20.8727 22.2247 20.8945 22.231C20.9056 22.2341 20.9182 22.2388 20.9307 22.2456L20.9658 22.2729L21.0654 22.3872C21.1538 22.499 21.2088 22.6034 21.2402 22.7183C21.281 22.8672 21.2803 23.0279 21.2754 23.231C21.2814 24.2426 21.324 25.2846 21.2402 26.3032L22.4229 26.313C22.3921 25.7615 22.3373 24.1284 22.3311 22.5483C22.3278 21.7081 22.3384 20.8812 22.373 20.2388C22.3904 19.9177 22.413 19.6402 22.4443 19.4302C22.46 19.3255 22.4783 19.2352 22.499 19.1636C22.5186 19.0957 22.5445 19.0315 22.583 18.9907C22.6212 18.9503 22.669 18.9206 22.7129 18.8979C22.7564 18.8755 22.8028 18.8564 22.8379 18.8413L22.875 18.8257L22.9111 18.8433C22.9766 18.8769 23.0332 18.9056 23.0752 18.9497C23.1194 18.9963 23.1431 19.0546 23.168 19.1313C23.2305 19.3241 23.2479 19.5534 23.249 19.7905C23.2501 20.0271 23.2339 20.2834 23.2266 20.5259C23.2191 20.7716 23.2196 21.0066 23.251 21.2134C23.2807 21.409 23.3386 21.5707 23.4346 21.6919C23.5232 21.7115 23.5688 21.715 23.6094 21.7085C23.6541 21.7013 23.697 21.6831 23.7842 21.647C23.8493 21.5463 23.9009 21.3782 23.9336 21.1587C23.9676 20.9302 23.9815 20.6601 23.9824 20.3843C23.9843 19.8323 23.9341 19.267 23.8896 18.9868C23.8092 18.4794 23.5967 18.0074 23.1816 17.7114C22.7429 17.3987 22.0731 17.2998 21.3584 17.2876Z" fill="#45C86E" stroke="#45C86E" stroke-width="0.17"/>
<path d="M14.8379 4.47217C14.9305 4.49621 15.0087 4.5168 15.082 4.55322C15.1204 4.57233 15.1559 4.59533 15.1914 4.62256L15.3027 4.71924L15.3223 4.73877L15.335 4.76416C15.4338 4.97387 15.4581 5.21324 15.459 5.43799C15.4595 5.57618 15.4498 5.72307 15.4414 5.85791C15.685 5.77648 15.9324 5.70634 16.1826 5.64795H16.1836C17.6109 5.31871 18.698 5.54176 19.7354 5.85303C20.7755 6.16515 21.7417 6.55576 22.9775 6.60303C23.0572 6.60606 23.2244 6.58452 23.4512 6.54639C23.6725 6.50916 23.9321 6.45935 24.1904 6.4126C24.4464 6.36627 24.7009 6.32306 24.9053 6.29932C25.0072 6.28748 25.1015 6.27947 25.1787 6.27979C25.217 6.27995 25.2547 6.28215 25.2891 6.2876C25.305 6.29013 25.3236 6.29426 25.3428 6.30029L25.4014 6.32666L25.4482 6.35596L25.4648 6.40967C25.4886 6.48672 25.5061 6.63019 25.5205 6.80322C25.5355 6.98305 25.5491 7.21324 25.5605 7.47607C25.5834 8.00237 25.5985 8.66519 25.6074 9.32959C25.6163 9.99404 25.6185 10.6614 25.6133 11.1978C25.6081 11.7279 25.5957 12.1435 25.5742 12.2944C25.5421 12.5201 25.4648 12.7325 25.249 12.8892C24.9658 13.0948 24.5694 13.1185 24.2676 13.064C24.1504 13.0428 24.0513 13.0111 23.9629 12.9526C23.8752 12.8945 23.8085 12.8173 23.7441 12.7251L23.7031 12.6665L23.7236 12.5972L23.7744 12.4224L23.7832 12.394L23.8018 12.3706C23.9166 12.2271 24.0731 12.1529 24.2217 12.1069C24.3229 12.0757 24.435 12.0534 24.5332 12.0347C24.6062 10.5329 24.5602 9.00848 24.5615 7.4917C22.1698 7.88513 20.9788 7.19639 18.8047 6.59912C17.671 6.40296 16.6206 6.60739 15.4746 6.81787C15.4208 8.169 15.4602 9.53134 15.4521 10.896C16.7422 10.5172 17.9913 10.4298 19.3301 10.5386L19.7275 10.5708L19.4082 10.8081C18.8334 11.2355 18.1425 11.4446 17.4443 11.5854C17.095 11.6559 16.7388 11.7101 16.3926 11.7651C16.0843 11.8142 15.7837 11.8655 15.4951 11.9282C15.4176 13.6679 15.471 15.4227 15.4795 17.1743L15.4814 17.5503L15.2207 17.2798C14.9624 17.0107 14.7521 16.684 14.5488 16.4019L14.5244 16.3687L14.5205 16.3286C14.4565 15.633 14.3993 12.8678 14.4023 10.2007C14.4039 8.8655 14.4199 7.55094 14.459 6.52783C14.4785 6.01652 14.5042 5.57541 14.5361 5.24072C14.552 5.07383 14.5698 4.93103 14.5898 4.81787C14.6088 4.71078 14.6325 4.61181 14.668 4.54639L14.7236 4.44287L14.8379 4.47217Z" fill="#45C86E" stroke="#45C86E" stroke-width="0.3"/>
<path d="M11.2095 11.1221C12.4768 10.9164 13.6718 11.7745 13.8823 13.041C14.0928 14.3078 13.2391 15.5067 11.9731 15.7217C10.7007 15.9378 9.49516 15.0779 9.28369 13.8047C9.07242 12.5315 9.93551 11.3289 11.2095 11.1221ZM12.644 12.4834C12.3037 12.1025 11.7849 11.9341 11.2856 12.042C10.5254 12.2065 10.0388 12.9518 10.1948 13.7139C10.3509 14.4759 11.0913 14.9699 11.855 14.8223C12.3565 14.7252 12.7679 14.3668 12.9312 13.8828C13.0944 13.3988 12.9844 12.8644 12.644 12.4834Z" fill="#45C86E" stroke="#45C86E" stroke-width="0.17"/>
<path d="M20.52 11.1201C21.7803 10.949 22.9451 11.8199 23.1372 13.0771C23.3292 14.3344 22.4779 15.5135 21.2241 15.7266C20.3942 15.8674 19.5527 15.5497 19.0229 14.8955C18.4933 14.2414 18.3573 13.3527 18.6675 12.5703C18.9778 11.7879 19.686 11.2334 20.52 11.1201ZM22.2271 13.0928C22.0437 12.3321 21.281 11.8616 20.519 12.0391C19.7487 12.2185 19.2721 12.9918 19.4575 13.7607C19.643 14.5295 20.4196 14.9998 21.187 14.8086C21.946 14.6192 22.4104 13.8533 22.2271 13.0928Z" fill="#45C86E" stroke="#45C86E" stroke-width="0.17"/>
</svg>
