<svg width="25" height="24" viewBox="0 0 25 24" fill="none" xmlns="http://www.w3.org/2000/svg">
<path d="M14.0039 12C14.0039 12.2967 13.9159 12.5867 13.7511 12.8334C13.5863 13.08 13.352 13.2723 13.0779 13.3858C12.8038 13.4994 12.5022 13.5291 12.2113 13.4712C11.9203 13.4133 11.653 13.2704 11.4432 13.0607C11.2335 12.8509 11.0906 12.5836 11.0327 12.2926C10.9749 12.0017 11.0046 11.7001 11.1181 11.426C11.2316 11.1519 11.4239 10.9176 11.6706 10.7528C11.9172 10.588 12.2072 10.5 12.5039 10.5C12.9017 10.5 13.2833 10.658 13.5646 10.9393C13.8459 11.2206 14.0039 11.6022 14.0039 12ZM6.12891 10.5C5.83224 10.5 5.54223 10.588 5.29555 10.7528C5.04888 10.9176 4.85662 11.1519 4.74309 11.426C4.62956 11.7001 4.59985 12.0017 4.65773 12.2926C4.71561 12.5836 4.85847 12.8509 5.06825 13.0607C5.27803 13.2704 5.5453 13.4133 5.83627 13.4712C6.12724 13.5291 6.42884 13.4994 6.70293 13.3858C6.97702 13.2723 7.21129 13.08 7.37611 12.8334C7.54093 12.5867 7.62891 12.2967 7.62891 12C7.62891 11.6022 7.47087 11.2206 7.18957 10.9393C6.90826 10.658 6.52673 10.5 6.12891 10.5ZM18.8789 10.5C18.5822 10.5 18.2922 10.588 18.0456 10.7528C17.7989 10.9176 17.6066 11.1519 17.4931 11.426C17.3796 11.7001 17.3499 12.0017 17.4077 12.2926C17.4656 12.5836 17.6085 12.8509 17.8182 13.0607C18.028 13.2704 18.2953 13.4133 18.5863 13.4712C18.8772 13.5291 19.1788 13.4994 19.4529 13.3858C19.727 13.2723 19.9613 13.08 20.1261 12.8334C20.2909 12.5867 20.3789 12.2967 20.3789 12C20.3789 11.6022 20.2209 11.2206 19.9396 10.9393C19.6583 10.658 19.2767 10.5 18.8789 10.5Z" fill="white"/>
</svg>
