<svg width="21" height="20" viewBox="0 0 21 20" fill="none" xmlns="http://www.w3.org/2000/svg">
<path d="M17.8398 5.62501H11.2234L9.08984 3.49141C8.97419 3.37483 8.83652 3.28241 8.68483 3.21951C8.53314 3.1566 8.37046 3.12448 8.20625 3.12501H4.08984C3.75832 3.12501 3.44038 3.2567 3.20596 3.49112C2.97154 3.72554 2.83984 4.04349 2.83984 4.37501V15.6734C2.84026 15.992 2.96698 16.2974 3.19223 16.5226C3.41748 16.7479 3.72286 16.8746 4.04141 16.875H17.9094C18.2223 16.8746 18.5223 16.7501 18.7436 16.5288C18.9649 16.3075 19.0894 16.0075 19.0898 15.6945V6.87501C19.0898 6.54349 18.9581 6.22554 18.7237 5.99112C18.4893 5.7567 18.1714 5.62501 17.8398 5.62501ZM8.20625 4.37501L9.45625 5.62501H4.08984V4.37501H8.20625ZM17.8398 15.625H4.08984V6.87501H17.8398V15.625ZM10.9648 8.75001C11.1306 8.75001 11.2896 8.81586 11.4068 8.93307C11.524 9.05028 11.5898 9.20925 11.5898 9.37501V10.625H12.8398C13.0056 10.625 13.1646 10.6909 13.2818 10.8081C13.399 10.9253 13.4648 11.0842 13.4648 11.25C13.4648 11.4158 13.399 11.5747 13.2818 11.6919C13.1646 11.8092 13.0056 11.875 12.8398 11.875H11.5898V13.125C11.5898 13.2908 11.524 13.4497 11.4068 13.5669C11.2896 13.6842 11.1306 13.75 10.9648 13.75C10.7991 13.75 10.6401 13.6842 10.5229 13.5669C10.4057 13.4497 10.3398 13.2908 10.3398 13.125V11.875H9.08984C8.92408 11.875 8.76511 11.8092 8.6479 11.6919C8.53069 11.5747 8.46484 11.4158 8.46484 11.25C8.46484 11.0842 8.53069 10.9253 8.6479 10.8081C8.76511 10.6909 8.92408 10.625 9.08984 10.625H10.3398V9.37501C10.3398 9.20925 10.4057 9.05028 10.5229 8.93307C10.6401 8.81586 10.7991 8.75001 10.9648 8.75001Z" fill="white"/>
</svg>
