<svg width="36" height="36" viewBox="0 0 36 36" fill="none" xmlns="http://www.w3.org/2000/svg">
<path d="M8.88833 20.7408L11.1105 16.4445C11.3521 15.9647 11.7196 15.5596 12.1737 15.2725C12.6277 14.9855 13.1513 14.8273 13.6883 14.8148H29.6291M29.6291 14.8148C30.0817 14.8141 30.5285 14.917 30.9352 15.1157C31.3419 15.3144 31.6976 15.6037 31.9751 15.9613C32.2526 16.3189 32.4445 16.7353 32.536 17.1786C32.6275 17.6219 32.6163 18.0803 32.5031 18.5186L30.2217 27.4074C30.0566 28.0468 29.6827 28.6127 29.1593 29.0153C28.6359 29.4179 27.9931 29.6341 27.3328 29.6297H5.92536C5.13954 29.6297 4.3859 29.3175 3.83023 28.7618C3.27457 28.2062 2.9624 27.4525 2.9624 26.6667V7.40744C2.9624 6.62161 3.27457 5.86797 3.83023 5.31231C4.3859 4.75665 5.13954 4.44448 5.92536 4.44448H11.7031C12.1987 4.43962 12.6875 4.55913 13.1249 4.79206C13.5623 5.025 13.9343 5.36392 14.2068 5.77781L15.4068 7.55559C15.6766 7.96526 16.0439 8.30155 16.4757 8.53426C16.9076 8.76698 17.3904 8.88884 17.8809 8.88892H26.6661C27.4519 8.88892 28.2056 9.20109 28.7612 9.75675C29.3169 10.3124 29.6291 11.0661 29.6291 11.8519V14.8148Z" stroke="#FAFAFA" stroke-width="2.96296" stroke-linecap="round" stroke-linejoin="round"/>
</svg>
