<svg width="6" height="28" viewBox="0 0 6 28" fill="none" xmlns="http://www.w3.org/2000/svg">
<path d="M0 18.4299C0 19.0895 0.262026 19.7221 0.728435 20.1885C1.19484 20.6549 1.82743 20.9169 2.48703 20.9169C3.14663 20.9169 3.77922 20.6549 4.24563 20.1885C4.71204 19.7221 4.97406 19.0895 4.97406 18.4299V2.48703C4.97406 1.82743 4.71204 1.19484 4.24563 0.728435C3.77922 0.262026 3.14663 0 2.48703 0C1.82743 0 1.19484 0.262026 0.728435 0.728435C0.262026 1.19484 0 1.82743 0 2.48703V18.4299Z" fill="white"/>
<path d="M2.54672 27.9999C1.14403 27.9999 0 26.8559 0 25.4532C0 24.0505 1.14403 22.9065 2.54672 22.9065C3.94941 22.9065 5.09344 24.0505 5.09344 25.4532C5.09344 26.8559 3.94941 27.9999 2.54672 27.9999Z" fill="white"/>
</svg>
