<svg width="24" height="24" viewBox="0 0 24 24" fill="none" xmlns="http://www.w3.org/2000/svg">
  <circle cx="12" cy="12" r="12" fill="white"/>
  <g transform="translate(2.25 2.5) scale(0.75)">
    <path d="M7.46758 0.657806C9.6283 -0.08398 11.9779 -0.0635778 14.1254 0.715618C15.3048 1.15712 16.3854 1.82724 17.3051 2.68749C16.9926 3.02187 16.6629 3.33437 16.3441 3.65937C15.7379 4.26458 15.1322 4.8677 14.527 5.46874C13.9236 4.89177 13.1938 4.46373 12.3957 4.21874C11.3744 3.91037 10.2879 3.88926 9.25542 4.15772C8.22292 4.42618 7.28432 4.97384 6.54258 5.74062C5.89513 6.39927 5.40481 7.19564 5.1082 8.07031L1.86914 5.56249C3.02853 3.26337 5.03594 1.50472 7.46758 0.657806Z" fill="#E33629"/>
    <path d="M1.00918 8.04688C1.18327 7.18405 1.47231 6.34848 1.86855 5.5625L5.10761 8.07656C4.68389 9.32438 4.68389 10.6772 5.10761 11.925C4.02845 12.7583 2.94876 13.5958 1.86855 14.4375C0.876598 12.463 0.57407 10.2133 1.00918 8.04688Z" fill="#F8BD00"/>
    <path d="M10.698 8.14844H19.998C20.3161 9.89365 20.23 11.6885 19.7464 13.3953C19.3015 14.9648 18.4371 16.3834 17.2464 17.4984C16.2011 16.6828 15.1511 15.8734 14.1058 15.0578C14.624 14.7082 15.0663 14.2576 15.4063 13.733C15.7462 13.2084 15.9766 12.6205 16.0839 12.0047H10.698C10.6964 10.7203 10.698 9.43437 10.698 8.14844Z" fill="#587DBD"/>
    <path d="M1.86719 14.4375C2.9474 13.6042 4.02708 12.7667 5.10625 11.925C5.52376 13.1504 6.31782 14.2124 7.375 14.9594C8.03439 15.4255 8.78364 15.749 9.575 15.9094C10.3548 16.0544 11.1546 16.0544 11.9344 15.9094C12.7119 15.7778 13.4533 15.4851 14.1109 15.05C15.1562 15.8657 16.2063 16.675 17.2516 17.4907C16.1076 18.5309 14.7132 19.2561 13.2047 19.5954C11.5397 19.9868 9.80457 19.968 8.14844 19.5407C6.8386 19.1909 5.61512 18.5744 4.55469 17.7297C3.43228 16.8386 2.51556 15.7156 1.86719 14.4375Z" fill="#319F43"/>
  </g>
</svg>
