<svg width="14" height="13" viewBox="0 0 14 13" fill="none" xmlns="http://www.w3.org/2000/svg">
<path d="M14.0002 4.12486C14.0012 4.60102 13.9079 5.07266 13.7255 5.5125C13.5431 5.95235 13.2753 6.35167 12.9377 6.68736L7.35641 12.3511C7.30988 12.3984 7.25443 12.4359 7.19327 12.4615C7.1321 12.4871 7.06646 12.5003 7.00016 12.5003C6.93385 12.5003 6.86821 12.4871 6.80705 12.4615C6.74589 12.4359 6.69043 12.3984 6.64391 12.3511L1.06266 6.68736C0.38221 6.00775 -0.000389844 5.08566 -0.000975888 4.12395C-0.00156193 3.16224 0.379914 2.23968 1.05953 1.55924C1.73915 0.878792 2.66124 0.496192 3.62295 0.495606C4.58466 0.49502 5.50721 0.876496 6.18766 1.55611L7.00016 2.31549L7.81828 1.55361C8.32606 1.04836 8.97215 0.704866 9.67499 0.566508C10.3778 0.428149 11.1059 0.501125 11.7673 0.776222C12.4287 1.05132 12.9938 1.5162 13.3912 2.11219C13.7886 2.70817 14.0005 3.40854 14.0002 4.12486Z" fill="#FF0000"/>
</svg>
