<svg width="26" height="26" viewBox="0 0 26 26" fill="none" xmlns="http://www.w3.org/2000/svg">
<path d="M11.386 22.7489C11.386 23.5899 11.0519 24.3965 10.4572 24.9912C9.86255 25.5859 9.05599 25.9199 8.21498 25.9199C7.37397 25.9199 6.5674 25.5859 5.97272 24.9912C5.37803 24.3965 5.04395 23.5899 5.04395 22.7489C5.04395 21.9079 5.37803 21.1013 5.97272 20.5067C6.5674 19.912 7.37397 19.5779 8.21498 19.5779C9.05599 19.5779 9.86255 19.912 10.4572 20.5067C11.0519 21.1013 11.386 21.9079 11.386 22.7489Z" fill="white"/>
<path fill-rule="evenodd" clip-rule="evenodd" d="M8.1719 4.59799C7.10961 4.59799 6.19794 4.9151 5.5558 5.36855C4.93745 5.80616 4.63145 6.31511 4.54266 6.75429C4.41146 7.34135 4.0554 7.85361 3.55086 8.18116C3.04632 8.50871 2.4335 8.62547 1.84387 8.50638C1.25423 8.38729 0.734761 8.04185 0.396897 7.54415C0.0590328 7.04646 -0.0703075 6.43617 0.0366246 5.84421C0.396537 4.05892 1.50323 2.60183 2.90482 1.61088C4.3635 0.580299 6.21221 0 8.1719 0C12.2261 0 16.4293 2.71123 16.4293 7.06506C16.4293 9.58603 14.931 11.625 12.9903 12.8141C12.4701 13.1325 11.8448 13.2311 11.2519 13.0884C10.659 12.9457 10.1471 12.5733 9.82877 12.0531C9.51044 11.5329 9.41179 10.9076 9.55452 10.3147C9.69724 9.72181 10.0696 9.20989 10.5898 8.89157C11.4936 8.33822 11.8313 7.63267 11.8313 7.06506C11.8313 6.15497 10.6976 4.59799 8.1719 4.59799Z" fill="white"/>
<path fill-rule="evenodd" clip-rule="evenodd" d="M8.17253 10.7261C9.44094 10.7261 10.4715 11.7535 10.4715 13.0251V15.4065C10.4715 16.0162 10.2293 16.601 9.79817 17.0322C9.36702 17.4633 8.78226 17.7055 8.17253 17.7055C7.5628 17.7055 6.97804 17.4633 6.5469 17.0322C6.11575 16.601 5.87354 16.0162 5.87354 15.4065V13.0251C5.87354 11.7567 6.90253 10.7261 8.17253 10.7261Z" fill="white"/>
<path fill-rule="evenodd" clip-rule="evenodd" d="M13.7679 9.67308C13.9232 9.93225 14.0258 10.2195 14.0701 10.5184C14.1143 10.8173 14.0991 11.122 14.0255 11.415C13.9519 11.708 13.8212 11.9837 13.641 12.2262C13.4607 12.4687 13.2345 12.6733 12.9751 12.8283L9.35378 14.9957C8.83067 15.3089 8.20454 15.4016 7.61313 15.2532C7.02172 15.1048 6.51347 14.7276 6.20019 14.2045C5.88691 13.6814 5.79427 13.0552 5.94265 12.4638C6.09102 11.8724 6.46826 11.3642 6.99136 11.0509L10.6143 8.88191C10.8734 8.72685 11.1605 8.62436 11.4592 8.58029C11.7579 8.53621 12.0624 8.55142 12.3553 8.62503C12.6481 8.69865 12.9236 8.82924 13.166 9.00934C13.4083 9.18943 13.6129 9.41393 13.7679 9.67308Z" fill="white"/>
<path d="M21.1865 17.0608C21.1865 17.6714 21.4291 18.257 21.8608 18.6888C22.2926 19.1205 22.8782 19.3631 23.4888 19.3631C24.0994 19.3631 24.685 19.1205 25.1168 18.6888C25.5485 18.257 25.7911 17.6714 25.7911 17.0608V2.30228C25.7911 1.69168 25.5485 1.10608 25.1168 0.674323C24.685 0.242561 24.0994 0 23.4888 0C22.8782 0 22.2926 0.242561 21.8608 0.674323C21.4291 1.10608 21.1865 1.69168 21.1865 2.30228V17.0608Z" fill="white"/>
<path d="M23.5441 25.9199C22.2456 25.9199 21.1865 24.8609 21.1865 23.5624C21.1865 22.2639 22.2456 21.2048 23.5441 21.2048C24.8425 21.2048 25.9016 22.2639 25.9016 23.5624C25.9016 24.8609 24.8425 25.9199 23.5441 25.9199Z" fill="white"/>
</svg>
