<svg width="56" height="56" viewBox="0 0 56 56" fill="none" xmlns="http://www.w3.org/2000/svg">
<path d="M39.2 0H16.8C7.5348 0 0 7.5348 0 16.8V53.2C0 53.9426 0.294999 54.6548 0.820101 55.1799C1.3452 55.705 2.05739 56 2.8 56H39.2C48.4652 56 56 48.4652 56 39.2V16.8C56 7.5348 48.4652 0 39.2 0Z" fill="url(#paint0_linear_1_288)"/>
<path d="M30.2381 22.1242C30.2381 24.5932 28.9239 26.863 26.7736 28.0775L25.2803 28.9337C24.0259 29.6505 23.2693 30.9646 23.2693 32.3982V33.0751H19.2871V30.3872C19.2871 28.6749 20.2428 27.1218 21.776 26.3652L22.0547 26.2059C22.7182 25.8763 23.2765 25.368 23.6669 24.7384C24.0574 24.1088 24.2644 23.3827 24.2648 22.6419V22.1242L24.1653 21.9052C23.6078 20.83 22.4928 20.1331 21.2782 20.1331C20.0636 20.1331 18.9486 20.83 18.3911 21.9052L18.2916 22.1242C18.2916 23.7768 16.9576 25.1108 15.305 25.1108C13.6524 25.1108 12.3184 23.7768 12.3184 22.1242C12.3184 17.7239 15.8824 14.1599 20.2827 14.1599H22.2737C26.674 14.1599 30.2381 17.7239 30.2381 22.1242Z" fill="white"/>
<path d="M21.2781 34.6749C23.4682 34.6749 25.2602 36.4669 25.2602 38.6571C25.2602 40.8473 23.4682 42.6392 21.2781 42.6392C19.0879 42.6392 17.2959 40.8473 17.2959 38.6571C17.2959 36.4669 19.0879 34.6749 21.2781 34.6749Z" fill="white"/>
<path d="M38.062 35.7215C35.6756 35.7215 33.7231 37.674 33.7231 40.0604C33.7231 42.4468 35.6756 44.3992 38.062 44.3992C40.4484 44.3992 42.4009 42.4468 42.4009 40.0604C42.4009 37.674 40.4484 35.7215 38.062 35.7215Z" fill="white"/>
<path d="M43.4854 12.3993H32.6382L35.8923 32.4666H40.2312L43.4854 12.3993Z" fill="white"/>
<defs>
<linearGradient id="paint0_linear_1_288" x1="28" y1="0" x2="28" y2="56" gradientUnits="userSpaceOnUse">
<stop stop-color="#C47335"/>
<stop offset="1" stop-color="#5E3719"/>
</linearGradient>
</defs>
</svg>
