<svg width="25" height="24" viewBox="0 0 25 24" fill="none" xmlns="http://www.w3.org/2000/svg">
<path d="M20.5037 16V7C20.5037 6.46957 20.293 5.96086 19.9179 5.58579C19.5428 5.21071 19.0341 5 18.5037 5H6.50368C5.97325 5 5.46454 5.21071 5.08947 5.58579C4.7144 5.96086 4.50368 6.46957 4.50368 7V16M20.5037 16H4.50368M20.5037 16L21.7837 18.55C21.8608 18.703 21.8973 18.8732 21.8897 19.0444C21.8821 19.2155 21.8307 19.3818 21.7403 19.5274C21.65 19.6729 21.5237 19.7928 21.3737 19.8756C21.2237 19.9584 21.055 20.0012 20.8837 20H4.12368C3.95237 20.0012 3.78363 19.9584 3.63363 19.8756C3.48363 19.7928 3.3574 19.6729 3.26706 19.5274C3.17671 19.3818 3.12528 19.2155 3.11768 19.0444C3.11009 18.8732 3.14659 18.703 3.22368 18.55L4.50368 16" stroke="white" stroke-width="2" stroke-linecap="round" stroke-linejoin="round"/>
</svg>
