<svg width="24" height="24" viewBox="0 0 24 24" fill="none" xmlns="http://www.w3.org/2000/svg">
<path d="M6.7041 12.7959L14.2041 20.2959C14.4154 20.5072 14.7021 20.626 15.001 20.626C15.2999 20.626 15.5865 20.5072 15.7979 20.2959C16.0092 20.0846 16.1279 19.7979 16.1279 19.499C16.1279 19.2001 16.0092 18.9135 15.7979 18.7021L9.09379 12L15.796 5.2959C15.9006 5.19125 15.9836 5.06702 16.0403 4.93029C16.0969 4.79356 16.1261 4.64702 16.1261 4.49902C16.1261 4.35103 16.0969 4.20448 16.0403 4.06776C15.9836 3.93103 15.9006 3.80679 15.796 3.70215C15.6913 3.5975 15.5671 3.51449 15.4304 3.45785C15.2936 3.40122 15.1471 3.37207 14.9991 3.37207C14.8511 3.37207 14.7046 3.40122 14.5678 3.45785C14.4311 3.51449 14.3069 3.5975 14.2022 3.70215L6.70223 11.2021C6.59747 11.3068 6.5144 11.4311 6.45778 11.5679C6.40116 11.7047 6.3721 11.8513 6.37228 11.9994C6.37245 12.1475 6.40185 12.2941 6.4588 12.4307C6.51574 12.5674 6.5991 12.6915 6.7041 12.7959Z" fill="white"/>
</svg>
