<svg width="25" height="24" viewBox="0 0 25 24" fill="none" xmlns="http://www.w3.org/2000/svg">
<path d="M20 1.875H7.25C6.35489 1.875 5.49645 2.23058 4.86351 2.86351C4.23058 3.49645 3.875 4.35489 3.875 5.25V21C3.875 21.2984 3.99353 21.5845 4.2045 21.7955C4.41548 22.0065 4.70163 22.125 5 22.125H18.5C18.7984 22.125 19.0845 22.0065 19.2955 21.7955C19.5065 21.5845 19.625 21.2984 19.625 21C19.625 20.7016 19.5065 20.4155 19.2955 20.2045C19.0845 19.9935 18.7984 19.875 18.5 19.875H6.125V19.5C6.125 19.2016 6.24353 18.9155 6.4545 18.7045C6.66548 18.4935 6.95163 18.375 7.25 18.375H20C20.2984 18.375 20.5845 18.2565 20.7955 18.0455C21.0065 17.8345 21.125 17.5484 21.125 17.25V3C21.125 2.70163 21.0065 2.41548 20.7955 2.2045C20.5845 1.99353 20.2984 1.875 20 1.875ZM18.875 16.125H7.25C6.86669 16.1243 6.48612 16.1896 6.125 16.3181V5.25C6.125 4.95163 6.24353 4.66548 6.4545 4.4545C6.66548 4.24353 6.95163 4.125 7.25 4.125H18.875V16.125Z" fill="white" fill-opacity="0.4"/>
</svg>
