<svg width="24" height="24" viewBox="0 0 24 24" fill="none" xmlns="http://www.w3.org/2000/svg">
<g clip-path="url(#clip0_7535_77864)">
<path d="M12 7.5V17M12 7.5C12 6.70435 11.6839 5.94129 11.1213 5.37868C10.5587 4.81607 9.79565 4.5 9 4.5H3.085C2.48577 4.5 2 4.98577 2 5.585C1.99995 10.1728 1.49876 14.7469 0.505359 19.2259C0.501801 19.2419 0.5 19.2583 0.5 19.2747C0.5 19.3991 0.600858 19.5 0.725273 19.5H9C9.79565 19.5 10.5587 19.8161 11.1213 20.3787C11.6839 20.9413 12 21.7044 12 22.5M12 7.5C12 6.70435 12.3161 5.94129 12.8787 5.37868C13.4413 4.81607 14.2044 4.5 15 4.5H20.915C21.5142 4.5 22 4.98577 22 5.585C22 10.1728 22.5012 14.7476 23.4946 19.2259C23.4982 19.2419 23.5 19.2583 23.5 19.2747C23.5 19.3991 23.3991 19.5 23.2747 19.5H15C14.2044 19.5 13.4413 19.8161 12.8787 20.3787C12.3161 20.9413 12 21.7044 12 22.5M12 22.5V23" stroke="white" stroke-width="1.4"/>
</g>
<defs>
<clipPath id="clip0_7535_77864">
<rect width="24" height="24" fill="white"/>
</clipPath>
</defs>
</svg>
