<svg width="26" height="22" viewBox="0 0 26 22" fill="none" xmlns="http://www.w3.org/2000/svg">
<path fill-rule="evenodd" clip-rule="evenodd" d="M1.74887e-08 6.71819C4.39339e-05 5.41961 0.376432 4.14886 1.08362 3.05973C1.79081 1.9706 2.79848 1.10976 3.98471 0.581382C5.17093 0.0530023 6.48487 -0.120271 7.76752 0.0825288C9.05017 0.285329 10.2466 0.85551 11.2119 1.72408L9.28376 6.47201C9.25817 6.53501 9.24627 6.60273 9.24884 6.67068C9.2514 6.73863 9.26838 6.80526 9.29864 6.86615C9.32891 6.92705 9.37177 6.98081 9.42438 7.02389C9.477 7.06696 9.53817 7.09836 9.60384 7.11601L11.8646 7.72162L12.5138 7.89581L12.807 7.97404C12.875 7.99226 12.9382 8.02522 12.9921 8.07059C13.0459 8.11595 13.0891 8.17262 13.1186 8.23655C13.1481 8.30048 13.1631 8.37012 13.1627 8.44053C13.1623 8.51094 13.1464 8.58038 13.1161 8.64395L10.2138 14.7413C10.1341 14.9093 10.3606 15.0513 10.4777 14.9069L17.2517 6.52096C17.302 6.45875 17.3359 6.38495 17.3504 6.30628C17.365 6.2276 17.3596 6.14655 17.3348 6.07049C17.31 5.99443 17.2666 5.92577 17.2085 5.87077C17.1504 5.81577 17.0794 5.77616 17.0021 5.75555L15.468 5.34477L14.775 5.15906L14.2102 5.00742C14.1911 5.00233 14.1735 4.99302 14.1585 4.98017C14.1435 4.96733 14.1316 4.95127 14.1237 4.93321C14.1158 4.91514 14.112 4.89552 14.1127 4.8758C14.1134 4.85609 14.1185 4.83678 14.1277 4.8193L16.2876 0.700494C16.317 0.644599 16.3351 0.583445 16.3409 0.520539C17.5704 0.00613313 18.9252 -0.130924 20.2329 0.1268C21.5406 0.384524 22.742 1.02538 23.6845 1.96786C24.3083 2.59171 24.8032 3.33233 25.1408 4.14744C25.4785 4.96254 25.6522 5.83617 25.6522 6.71843C25.6522 7.60069 25.4785 8.47432 25.1408 9.28942C24.8032 10.1045 24.3083 10.8451 23.6845 11.469L16.898 18.2555L13.5053 21.6482C13.4161 21.7375 13.3103 21.8082 13.1938 21.8565C13.0772 21.9048 12.9524 21.9297 12.8262 21.9297C12.7001 21.9297 12.5752 21.9048 12.4587 21.8565C12.3422 21.8082 12.2363 21.7375 12.1472 21.6482L8.75445 18.2555L1.96751 11.469C1.34367 10.8451 0.84883 10.1044 0.511244 9.28928C0.173657 8.47413 -6.36405e-05 7.60048 1.74887e-08 6.71819Z" fill="white"/>
</svg>
