<svg width="20" height="32" viewBox="0 0 20 32" fill="none" xmlns="http://www.w3.org/2000/svg">
<path d="M13.7865 27.5412C13.7865 28.5594 13.382 29.5358 12.662 30.2558C11.9421 30.9758 10.9656 31.3802 9.94744 31.3802C8.92926 31.3802 7.95279 30.9758 7.23283 30.2558C6.51287 29.5358 6.1084 28.5594 6.1084 27.5412C6.1084 26.523 6.51287 25.5465 7.23283 24.8266C7.95279 24.1066 8.92926 23.7021 9.94744 23.7021C10.9656 23.7021 11.9421 24.1066 12.662 24.8266C13.382 25.5465 13.7865 26.523 13.7865 27.5412Z" fill="white"/>
<path fill-rule="evenodd" clip-rule="evenodd" d="M9.89388 5.56661C8.60781 5.56661 7.50408 5.95051 6.72668 6.49949C5.97807 7.02928 5.6076 7.64545 5.5001 8.17716C5.34127 8.88789 4.9102 9.50805 4.29938 9.90461C3.68855 10.3012 2.94663 10.4425 2.23278 10.2983C1.51894 10.1542 0.890034 9.73594 0.480995 9.1334C0.071957 8.53087 -0.0846302 7.79201 0.0448282 7.07535C0.480559 4.91397 1.82038 3.14993 3.51724 1.95023C5.2832 0.702544 7.52136 0 9.89388 0C14.8021 0 19.8907 3.28238 19.8907 8.55338C19.8907 11.6054 18.0768 14.0739 15.7273 15.5136C15.0976 15.8989 14.3405 16.0184 13.6227 15.8456C12.9049 15.6728 12.2852 15.2219 11.8998 14.5922C11.5144 13.9624 11.395 13.2054 11.5678 12.4876C11.7406 11.7698 12.1914 11.15 12.8212 10.7647C13.9153 10.0948 14.3241 9.24057 14.3241 8.55338C14.3241 7.45158 12.9517 5.56661 9.89388 5.56661Z" fill="white"/>
<path fill-rule="evenodd" clip-rule="evenodd" d="M9.89219 12.9856C11.4278 12.9856 12.6755 14.2294 12.6755 15.7689V18.652C12.6755 19.3902 12.3823 20.0981 11.8603 20.6201C11.3383 21.1421 10.6304 21.4353 9.89219 21.4353C9.15401 21.4353 8.44607 21.1421 7.9241 20.6201C7.40213 20.0981 7.10889 19.3902 7.10889 18.652V15.7689C7.10889 14.2333 8.35465 12.9856 9.89219 12.9856Z" fill="white"/>
<path fill-rule="evenodd" clip-rule="evenodd" d="M16.6662 11.711C16.8542 12.0247 16.9786 12.3725 17.0321 12.7344C17.0856 13.0962 17.0673 13.4651 16.9781 13.8198C16.889 14.1746 16.7308 14.5083 16.5126 14.8019C16.2944 15.0955 16.0205 15.3432 15.7065 15.5308L11.3223 18.1548C10.689 18.5341 9.93094 18.6462 9.21494 18.4666C8.49894 18.287 7.88363 17.8303 7.50436 17.197C7.12508 16.5636 7.01293 15.8056 7.19256 15.0896C7.37219 14.3736 7.82889 13.7583 8.4622 13.379L12.8483 10.7531C13.162 10.5654 13.5096 10.4413 13.8713 10.388C14.2329 10.3346 14.6015 10.353 14.9561 10.4421C15.3106 10.5313 15.6441 10.6894 15.9376 10.9074C16.231 11.1254 16.4786 11.3972 16.6662 11.711Z" fill="white"/>
</svg>
