<svg width="24" height="24" viewBox="0 0 24 24" fill="none" xmlns="http://www.w3.org/2000/svg">
  <g transform="translate(4, 4) scale(2)">
    <path fill-rule="evenodd" clip-rule="evenodd" d="M0.145704 0.00665758C0.273025 -0.00227915 0.404299 0.00413108 0.531965 0.0041042L1.26309 0.00401028L2.06081 0.00380871C2.2004 0.00382215 2.34322 -0.0025344 2.48248 0.00556914C2.51865 0.00766557 2.58234 0.0124228 2.61131 0.0353895C2.64212 0.0598345 2.66245 0.106897 2.66884 0.145896C2.68762 0.260757 2.67343 0.521925 2.67343 0.648987L2.67405 1.88375C2.67424 1.9965 2.67383 2.10926 2.67283 2.22201C2.67235 2.28965 2.66778 2.36069 2.67453 2.42791C2.67945 2.47681 2.70743 2.52496 2.74512 2.55396C2.77273 2.57522 2.83093 2.57786 2.86528 2.57948C3.0427 2.58783 3.22342 2.58036 3.40116 2.58022L4.42672 2.58016L4.95361 2.5804C5.03089 2.58055 5.12361 2.59092 5.1994 2.57787C5.25486 2.56832 5.29685 2.52013 5.31172 2.46479C5.33652 2.37247 5.32102 2.10151 5.32102 1.99161L5.321 0.799474C5.32091 0.598445 5.31026 0.38993 5.32278 0.189747C5.32516 0.151729 5.32676 0.107072 5.34981 0.0761625C5.38444 0.0297184 5.42712 0.011415 5.48201 0.00609326C5.60783 -0.0060822 5.7419 0.00372805 5.8686 0.00386243L6.62474 0.00427891L7.41176 0.00411773C7.55181 0.00391615 7.69839 -0.0057059 7.83777 0.00736996C7.87367 0.0107296 7.91541 0.0260765 7.94238 0.0520132C7.97913 0.0873436 7.98942 0.161579 7.99313 0.211423C8.00351 0.350809 7.99559 0.496216 7.99549 0.636422L7.99499 1.45171L7.99549 2.19936C7.99557 2.3244 8.00387 2.45703 7.9928 2.58133C7.98881 2.62617 7.97807 2.65739 7.94873 2.69128C7.91856 2.72613 7.88154 2.74208 7.83766 2.74805C7.76059 2.75854 7.67877 2.7524 7.60107 2.75149C7.4964 2.74998 7.3917 2.74991 7.28702 2.75131L6.19488 2.75106C5.98585 2.75057 5.77402 2.74289 5.56538 2.75442C5.54224 2.7707 5.51391 2.79061 5.50136 2.81756C5.48874 2.84463 5.48768 2.88172 5.4868 2.91165C5.47964 3.15689 5.48776 3.40466 5.48759 3.65028C5.48746 3.83477 5.47157 5.09201 5.49834 5.16562C5.51125 5.20111 5.55188 5.23183 5.58652 5.23935C5.69109 5.26211 5.91782 5.24609 6.03664 5.24583L7.26081 5.24611C7.44375 5.24652 7.6319 5.23547 7.81414 5.24566C7.84416 5.24734 7.87417 5.25266 7.90184 5.26537C7.93528 5.28074 7.96662 5.30841 7.97851 5.34571C8.01273 5.45312 7.9956 5.91371 7.9956 6.04691L7.99465 7.2385C7.99405 7.42463 8.00636 7.61571 7.99551 7.80113C7.99322 7.84024 7.98475 7.87893 7.96599 7.9131C7.94142 7.95788 7.90849 7.98071 7.86188 7.99483C7.70409 7.99981 7.54541 7.99607 7.38749 7.99613L6.51139 7.99614L5.85609 7.99642C5.73857 7.9966 5.61899 8.00149 5.50174 7.99539C5.46374 7.9934 5.42422 7.99181 5.39217 7.9683C5.35672 7.94229 5.33455 7.90547 5.32599 7.86108C5.30642 7.75958 5.32141 7.5349 5.32143 7.42162L5.32096 6.08513C5.32097 5.95154 5.33702 5.62991 5.3133 5.51335C5.30635 5.47915 5.27716 5.44007 5.24855 5.42276C5.22092 5.40605 5.16462 5.40368 5.13264 5.40261C4.96742 5.39706 4.80077 5.40207 4.63539 5.40211L3.66193 5.40259L3.17863 5.40215C3.07056 5.40164 2.89708 5.38459 2.79699 5.41549C2.74422 5.4318 2.69626 5.47649 2.68205 5.53388C2.65931 5.62566 2.67331 5.9191 2.67343 6.02932L2.67336 7.25103L2.67347 7.61917C2.67386 7.68845 2.67767 7.75911 2.67401 7.82824C2.67233 7.85979 2.6681 7.88904 2.65255 7.91656C2.6335 7.95028 2.59873 7.98179 2.56172 7.99074C2.49174 8.00766 2.39649 7.99621 2.32419 7.99626L1.77734 7.99608L0.726785 7.99609C0.543469 7.9964 0.356314 8.00494 0.173369 7.99563C0.139741 7.99391 0.112895 7.98852 0.0837967 7.96972C0.0428494 7.94326 0.0290042 7.91265 0.0173981 7.86459C-0.0115337 7.74481 0.0043334 7.5917 0.00441018 7.46843L0.00492193 6.8574L0.0046148 5.9376C0.00453802 5.78052 -0.00115606 5.62115 0.0054083 5.4643C0.00732771 5.41857 0.0118062 5.35444 0.0363874 5.31593C0.0579231 5.28218 0.0966823 5.26024 0.133957 5.25232C0.199793 5.23833 0.274842 5.245 0.341803 5.24525L0.654961 5.24634L2.01041 5.24516C2.11922 5.24488 2.33934 5.26341 2.43495 5.23927C2.47675 5.22872 2.49247 5.19353 2.51278 5.1577C2.51571 4.92668 2.52637 2.88395 2.5036 2.82666C2.49167 2.79661 2.46477 2.76855 2.43486 2.75919C2.35527 2.73427 2.18478 2.75342 2.09455 2.7521C1.62614 2.74525 1.15732 2.75364 0.688845 2.7511C0.528574 2.75024 0.365962 2.75835 0.205986 2.74981C0.172512 2.74802 0.136619 2.74622 0.105819 2.73119C0.0713719 2.7144 0.0298103 2.67299 0.0184986 2.63438C-0.0102029 2.53648 0.00449968 2.23779 0.00453807 2.12094L0.00497309 1.28653L0.00439729 0.587129C0.00426933 0.461692 -0.000439509 0.333971 0.0059841 0.208749C0.00814663 0.166565 0.01164 0.118938 0.0320497 0.081686C0.0572195 0.0357659 0.100483 0.0211176 0.145704 0.00665758Z M3.94375 2.8595C3.98255 2.85957 4.02154 2.85888 4.06032 2.86015C4.06067 2.88624 4.05708 2.92069 4.06685 2.94476C4.08463 2.95824 4.10563 2.95552 4.12664 2.9559C4.13963 2.9653 4.14386 2.96716 4.14658 2.98484C4.14927 3.00222 4.14554 3.02578 4.1402 3.04215C4.11996 3.05576 4.08451 3.05174 4.06074 3.0524L4.06176 3.13865C4.10103 3.15994 4.14012 3.17883 4.18157 3.19501C4.22903 3.21354 4.30024 3.22909 4.34075 3.25844C4.35116 3.26599 4.35882 3.27947 4.36282 3.29186C4.3917 3.38114 4.29092 3.53274 4.25672 3.61449C4.23594 3.66416 4.2207 3.71114 4.21019 3.7643C4.25233 3.77341 4.29818 3.78192 4.32343 3.82291C4.33239 3.83744 4.33646 3.85439 4.33179 3.87148C4.32448 3.89821 4.29905 3.9205 4.27521 3.93035C4.25238 3.93978 4.22556 3.94258 4.20142 3.94632C4.19485 4.29235 4.23688 4.42727 4.41035 4.71704L4.40658 4.7693C4.46029 4.81518 4.54536 4.8741 4.55219 4.95234C4.55465 4.98366 4.54473 5.01468 4.52476 5.03809C4.51617 5.04817 4.50615 5.05716 4.49644 5.06604C4.37339 5.09303 4.09762 5.07787 3.96154 5.07787C3.82645 5.07787 3.68137 5.08906 3.54719 5.07536C3.52711 5.0733 3.50707 5.07002 3.48967 5.05852C3.4879 5.05735 3.48632 5.0559 3.48464 5.05459C3.45201 5.02731 3.44277 5.00202 3.43005 4.96122C3.45388 4.86611 3.50691 4.82659 3.57991 4.77192L3.56778 4.71138C3.73671 4.42738 3.79314 4.28278 3.79367 3.94634C3.77497 3.94232 3.75726 3.93961 3.73825 3.9379C3.72627 3.9321 3.71475 3.92605 3.70381 3.91824C3.68367 3.90388 3.66738 3.88361 3.66485 3.85727C3.66336 3.84194 3.66963 3.82783 3.67808 3.8158C3.70658 3.77521 3.74722 3.77109 3.79108 3.76511C3.77972 3.71063 3.76449 3.65972 3.74383 3.60829C3.71698 3.54147 3.6125 3.363 3.6314 3.29888C3.63676 3.2807 3.64926 3.26216 3.66431 3.25153C3.72311 3.21001 3.86488 3.1771 3.94268 3.13787C3.94315 3.10804 3.94513 3.07881 3.94797 3.04912C3.92486 3.05057 3.89688 3.05588 3.87509 3.04673C3.86448 3.03162 3.8547 3.01957 3.85166 3.00051C3.85602 2.98365 3.85868 2.97411 3.87356 2.96444C3.89267 2.95204 3.91922 2.94536 3.94067 2.93849C3.94387 2.91199 3.94387 2.88618 3.94375 2.8595Z M3.79367 3.94653C3.80351 3.95516 3.80095 3.95085 3.80409 3.95715C3.85039 4.0099 3.85681 4.06844 3.85443 4.13766C3.84955 4.2801 3.79761 4.43746 3.73324 4.56168C3.68482 4.65513 3.64097 4.70758 3.62523 4.81584C3.60769 4.83706 3.59283 4.85514 3.56962 4.8698C3.5248 4.90938 3.49003 4.9459 3.48401 5.01132C3.48268 5.02586 3.48446 5.03519 3.49049 5.04808L3.48464 5.05478C3.45201 5.0275 3.44277 5.00221 3.43005 4.96141C3.45388 4.8663 3.50691 4.82678 3.57991 4.77211L3.56778 4.71157C3.73671 4.42757 3.79314 4.28297 3.79367 3.94653Z M3.948 3.04932L3.96572 3.05593C3.98144 3.06714 3.99356 3.0714 3.99853 3.09228C4.00624 3.12465 4.00263 3.16091 3.98263 3.18735C3.92528 3.26315 3.68032 3.27235 3.67901 3.37651C3.67859 3.41055 3.70474 3.44462 3.7083 3.48035L3.71069 3.48667C3.75133 3.59135 3.82381 3.68604 3.82602 3.80372C3.79234 3.83944 3.72748 3.83232 3.72579 3.89739C3.72534 3.91463 3.72999 3.92368 3.73827 3.9381C3.72629 3.93229 3.71478 3.92625 3.70383 3.91844C3.68369 3.90407 3.6674 3.88381 3.66487 3.85747C3.66339 3.84213 3.66966 3.82802 3.6781 3.81599C3.7066 3.77541 3.74724 3.77128 3.7911 3.7653C3.77974 3.71082 3.76451 3.65992 3.74385 3.60849C3.717 3.54167 3.61252 3.36319 3.63142 3.29907C3.63678 3.28089 3.64928 3.26236 3.66433 3.25173C3.72313 3.2102 3.8649 3.17729 3.9427 3.13807C3.94317 3.10823 3.94515 3.079 3.948 3.04932Z" fill="white"/>
  </g>
</svg>