<svg width="20" height="20" viewBox="0 0 20 20" fill="none" xmlns="http://www.w3.org/2000/svg">
<path d="M6.08737 7.4748V6.02064V5.2998M6.08737 5.2998H6.3582H5.8207H6.08737ZM6.7707 6.02064H5.4082" stroke="white" stroke-width="0.5" stroke-linecap="round" stroke-linejoin="round"/>
<path d="M10.0003 2.2915V17.7082M16.042 2.2915H3.95866C3.51663 2.2915 3.09271 2.4671 2.78015 2.77966C2.46759 3.09222 2.29199 3.51614 2.29199 3.95817V16.0415C2.29199 16.4835 2.46759 16.9075 2.78015 17.22C3.09271 17.5326 3.51663 17.7082 3.95866 17.7082H16.042C16.484 17.7082 16.9079 17.5326 17.2205 17.22C17.5331 16.9075 17.7087 16.4835 17.7087 16.0415V3.95817C17.7087 3.51614 17.5331 3.09222 17.2205 2.77966C16.9079 2.4671 16.484 2.2915 16.042 2.2915Z" stroke="white" stroke-width="0.5" stroke-linecap="round" stroke-linejoin="round"/>
<path d="M15.6174 16.0347C15.6345 16.0347 15.6515 16.0312 15.6672 16.0244C15.683 16.0176 15.6971 16.0077 15.7089 15.9952C15.7206 15.9827 15.7296 15.9679 15.7354 15.9517C15.7412 15.9356 15.7435 15.9184 15.7424 15.9013C15.7216 15.1222 14.7007 15.068 15.2216 15.0013C15.4924 14.9597 15.9216 14.6472 15.5757 14.2888C15.2299 13.9305 15.0674 14.0097 15.2132 13.8722C15.3591 13.7347 16.0466 13.0597 15.5966 12.918C14.9299 12.7055 15.1799 12.6263 15.2132 12.5972C15.3959 12.508 15.5532 12.3742 15.6705 12.2082C15.7877 12.0421 15.8612 11.8492 15.8841 11.6472C15.887 11.6228 15.882 11.5981 15.8696 11.5769C15.8573 11.5557 15.8383 11.5391 15.8157 11.5297C15.793 11.5202 15.7679 11.5184 15.7441 11.5246C15.7204 11.5308 15.6993 11.5446 15.6841 11.5638C15.5174 11.7555 14.0174 12.2847 11.7591 12.2722C11.4424 12.318 11.6049 12.6513 11.6424 13.0222C11.6674 13.2472 12.0174 13.293 12.1757 13.2763C12.2591 13.2763 12.6799 13.2222 12.7424 13.2305C13.0091 13.2638 13.0716 13.468 13.1591 13.6472C13.2449 13.7768 13.3653 13.8799 13.5067 13.9447C13.6481 14.0095 13.8048 14.0334 13.9591 14.0138C14.0132 14.0138 13.8549 14.0763 13.4882 14.0722C12.8549 14.0722 12.0507 14.793 11.7966 15.818C11.7918 15.8406 11.7918 15.864 11.7967 15.8865C11.8017 15.9091 11.8114 15.9304 11.8252 15.9489C11.839 15.9674 11.8566 15.9828 11.8768 15.994C11.897 16.0052 11.9194 16.012 11.9424 16.0138C12.5841 16.0513 14.9716 16.0263 15.6174 16.0347Z" stroke="white" stroke-width="0.5" stroke-linecap="round" stroke-linejoin="round"/>
<path d="M2.29199 9.99997H17.7087M13.9387 12.8221C14.072 12.8312 14.2062 12.8096 14.3303 12.7596C14.1976 12.763 14.0659 12.784 13.9387 12.8221ZM6.07533 8.47913H4.29616C4.29616 8.47913 2.68366 5.56247 6.06699 3.5708C9.45033 5.57913 7.84199 8.47913 7.84199 8.47913H6.07533Z" stroke="white" stroke-width="0.5" stroke-linecap="round" stroke-linejoin="round"/>
</svg>
