<svg width="13" height="13" viewBox="0 0 13 13" fill="none" xmlns="http://www.w3.org/2000/svg">
<path d="M7.75731 1.6067C8.19265 1.31603 8.41065 1.1707 8.64731 1.1947C8.88465 1.21803 9.06931 1.4027 9.43931 1.7727L11.2273 3.5607C11.5973 3.9307 11.782 4.11537 11.8053 4.3527C11.8286 4.59003 11.684 4.80737 11.394 5.2427L10.294 6.89136C9.91998 7.45336 9.73265 7.73403 9.58331 8.03403C9.47254 8.25624 9.37742 8.48591 9.29865 8.72136C9.19198 9.03936 9.12531 9.3707 8.99331 10.0327L8.86665 10.6694L8.86531 10.6734C8.84341 10.7814 8.79508 10.8823 8.72464 10.967C8.6542 11.0517 8.56385 11.1177 8.46167 11.159C8.3595 11.2003 8.24868 11.2156 8.13914 11.2035C8.0296 11.1915 7.92476 11.1525 7.83398 11.09L7.83065 11.0874L7.81265 11.0754C5.50699 9.47758 3.50835 7.47713 1.91265 5.17003L1.90998 5.16603C1.8475 5.07525 1.8085 4.97041 1.79647 4.86087C1.78443 4.75133 1.79974 4.64051 1.84102 4.53834C1.8823 4.43616 1.94826 4.34581 2.03301 4.27537C2.11776 4.20493 2.21865 4.1566 2.32665 4.1347L2.33065 4.13403L2.96731 4.0067C3.62931 3.87403 3.96065 3.80803 4.27865 3.70136C4.51388 3.62256 4.74332 3.52744 4.96531 3.4167C5.26531 3.26736 5.54665 3.08003 6.10865 2.70537L7.75731 1.6067Z" fill="white" stroke="white"/>
<path d="M1.3335 11.6667L4.3335 8.66675" stroke="white" stroke-linecap="round"/>
</svg>
