<svg width="25" height="24" viewBox="0 0 25 24" fill="none" xmlns="http://www.w3.org/2000/svg">
<path d="M8.75391 9.7498H4.25391C4.05499 9.7498 3.86423 9.67078 3.72358 9.53013C3.58292 9.38947 3.50391 9.19871 3.50391 8.9998V4.4998C3.50391 4.30088 3.58292 4.11012 3.72358 3.96947C3.86423 3.82881 4.05499 3.7498 4.25391 3.7498C4.45282 3.7498 4.64358 3.82881 4.78424 3.96947C4.92489 4.11012 5.00391 4.30088 5.00391 4.4998V7.18948L6.37547 5.81792C8.04817 4.1368 10.3199 3.18859 12.6914 3.18167H12.7411C15.0924 3.17561 17.3515 4.09614 19.0289 5.74386C19.1659 5.88398 19.2426 6.07213 19.2426 6.26808C19.2426 6.46402 19.1659 6.65218 19.029 6.79231C18.892 6.93245 18.7057 7.01342 18.5098 7.01792C18.3139 7.02241 18.124 6.95007 17.9808 6.81636C16.5826 5.44393 14.7003 4.67708 12.7411 4.68167H12.6989C10.7228 4.68775 8.82992 5.47776 7.43578 6.87823L6.06422 8.2498H8.75391C8.95282 8.2498 9.14358 8.32881 9.28424 8.46947C9.42489 8.61012 9.50391 8.80088 9.50391 8.9998C9.50391 9.19871 9.42489 9.38947 9.28424 9.53013C9.14358 9.67078 8.95282 9.7498 8.75391 9.7498ZM20.7539 14.2498H16.2539C16.055 14.2498 15.8642 14.3288 15.7236 14.4695C15.5829 14.6101 15.5039 14.8009 15.5039 14.9998C15.5039 15.1987 15.5829 15.3895 15.7236 15.5301C15.8642 15.6708 16.055 15.7498 16.2539 15.7498H18.9436L17.572 17.1214C16.1781 18.5216 14.2856 19.3116 12.3098 19.3179H12.2677C10.3084 19.3225 8.42617 18.5557 7.02797 17.1832C6.95811 17.1118 6.87468 17.055 6.78257 17.0162C6.69046 16.9775 6.59153 16.9575 6.49159 16.9575C6.39166 16.9575 6.29273 16.9775 6.20063 17.0162C6.10852 17.055 6.02509 17.1118 5.95524 17.1833C5.8854 17.2548 5.83054 17.3395 5.79389 17.4324C5.75724 17.5254 5.73954 17.6248 5.74183 17.7247C5.74412 17.8246 5.76636 17.923 5.80723 18.0142C5.84811 18.1054 5.90679 18.1875 5.97984 18.2557C7.65728 19.9035 9.91633 20.824 12.2677 20.8179H12.3164C14.6876 20.8108 16.9589 19.8626 18.6314 18.1817L20.0039 16.8101V19.4998C20.0039 19.6987 20.0829 19.8895 20.2236 20.0301C20.3642 20.1708 20.555 20.2498 20.7539 20.2498C20.9528 20.2498 21.1436 20.1708 21.2842 20.0301C21.4249 19.8895 21.5039 19.6987 21.5039 19.4998V14.9998C21.5039 14.8009 21.4249 14.6101 21.2842 14.4695C21.1436 14.3288 20.9528 14.2498 20.7539 14.2498Z" fill="white"/>
</svg>
