<svg width="21" height="20" viewBox="0 0 21 20" fill="none" xmlns="http://www.w3.org/2000/svg">
<path d="M19.0672 9.19219L12.8172 15.4422C12.7298 15.5297 12.6184 15.5893 12.4971 15.6135C12.3758 15.6376 12.25 15.6252 12.1358 15.5779C12.0215 15.5305 11.9239 15.4504 11.8552 15.3475C11.7865 15.2446 11.7499 15.1237 11.75 15V11.893C7.28908 12.1461 4.23048 15.0391 3.37189 15.9555C3.23707 16.0995 3.06027 16.1972 2.86666 16.2349C2.67304 16.2726 2.47247 16.2483 2.2935 16.1653C2.11452 16.0824 1.96625 15.9452 1.8698 15.7731C1.77334 15.6011 1.73361 15.403 1.75626 15.207C2.04611 12.6867 3.42658 10.2625 5.64376 8.38125C7.48517 6.81875 9.72345 5.82735 11.75 5.65391V2.5C11.7499 2.37632 11.7865 2.25539 11.8552 2.15252C11.9239 2.04964 12.0215 1.96946 12.1358 1.92211C12.25 1.87477 12.3758 1.86239 12.4971 1.88655C12.6184 1.9107 12.7298 1.97031 12.8172 2.05782L19.0672 8.30782C19.1253 8.36586 19.1714 8.43479 19.2029 8.51067C19.2343 8.58654 19.2505 8.66787 19.2505 8.75C19.2505 8.83214 19.2343 8.91347 19.2029 8.98934C19.1714 9.06521 19.1253 9.13415 19.0672 9.19219Z" fill="white"/>
</svg>
