<svg width="20" height="20" viewBox="0 0 20 20" fill="none" xmlns="http://www.w3.org/2000/svg">
<path d="M15.0592 3.12508V1.66675H1.6084V15.1192H3.06673" stroke="#46E375" stroke-width="1.5"/>
<path d="M4.94092 4.88086H18.3918V18.3334H4.94175L4.94092 4.88086Z" stroke="#46E375" stroke-width="1.5"/>
<path d="M11.14 9.25601L11.8233 9.93934L12.5066 9.25601C12.6845 9.06928 12.8979 8.92002 13.1342 8.817C13.3706 8.71398 13.6252 8.65929 13.8831 8.65615C14.1409 8.65301 14.3968 8.70147 14.6356 8.79869C14.8744 8.89592 15.0914 9.03993 15.2737 9.22227C15.456 9.4046 15.6001 9.62156 15.6973 9.86039C15.7945 10.0992 15.843 10.3551 15.8398 10.6129C15.8367 10.8707 15.782 11.1254 15.679 11.3617C15.576 11.5981 15.4267 11.8115 15.24 11.9893L11.8233 15.406L8.40664 11.9893C8.21992 11.8115 8.07065 11.5981 7.96764 11.3617C7.86462 11.1254 7.80993 10.8707 7.80678 10.6129C7.80364 10.3551 7.85211 10.0992 7.94933 9.86039C8.04655 9.62156 8.19057 9.4046 8.3729 9.22227C8.55523 9.03993 8.7722 8.89592 9.01102 8.79869C9.24985 8.70147 9.50571 8.65301 9.76355 8.65615C10.0214 8.65929 10.276 8.71398 10.5124 8.817C10.7488 8.92002 10.9621 9.06928 11.14 9.25601Z" stroke="#46E375" stroke-width="1.5"/>
</svg>
