<svg width="20" height="20" viewBox="0 0 20 20" fill="none" xmlns="http://www.w3.org/2000/svg">
<g clip-path="url(#clip0_1886_11555)">
<path d="M19.4444 14.4444C19.4444 15.0338 19.2103 15.599 18.7936 16.0158C18.3768 16.4325 17.8116 16.6667 17.2222 16.6667H2.77778C2.18841 16.6667 1.62318 16.4325 1.20643 16.0158C0.789684 15.599 0.555557 15.0338 0.555557 14.4444V3.50722C0.555557 2.28 3.77278 0 5 0H16.4583C18.1772 0 19.4444 1.28444 19.4444 2.98611V14.4444Z" fill="#0C0C0E"/>
<path d="M18.3333 16.6667C18.3333 17.2561 18.0992 17.8213 17.6825 18.2381C17.2657 18.6548 16.7005 18.8889 16.1111 18.8889H3.88889C3.29952 18.8889 2.73429 18.6548 2.31754 18.2381C1.90079 17.8213 1.66666 17.2561 1.66666 16.6667V3.33338C1.66666 1.04505 1.655 1.11116 4.44444 1.11116H16.1111C16.7005 1.11116 17.2657 1.34529 17.6825 1.76203C18.0992 2.17878 18.3333 2.74401 18.3333 3.33338V16.6667Z" fill="white"/>
<path d="M17.2222 17.2222C17.2222 17.6642 17.0466 18.0881 16.7341 18.4007C16.4215 18.7132 15.9976 18.8888 15.5556 18.8888H2.22222C1.7802 18.8888 1.35627 18.7132 1.04371 18.4007C0.731152 18.0881 0.555557 17.6642 0.555557 17.2222V3.88883C0.555557 3.44681 0.731152 3.02288 1.04371 2.71032C1.35627 2.39776 1.7802 2.22217 2.22222 2.22217H15.5556C15.9976 2.22217 16.4215 2.39776 16.7341 2.71032C17.0466 3.02288 17.2222 3.44681 17.2222 3.88883V17.2222Z" fill="white"/>
<path d="M17.2222 17.7778C17.2222 18.3672 16.9881 18.9324 16.5713 19.3492C16.1546 19.7659 15.5894 20 15 20H3.33333C2.74396 20 2.17873 19.7659 1.76198 19.3492C1.34524 18.9324 1.11111 18.3672 1.11111 17.7778V5.5556C1.11111 4.96623 1.34524 4.401 1.76198 3.98425C2.17873 3.5675 2.74396 3.33337 3.33333 3.33337H15C15.5894 3.33337 16.1546 3.5675 16.5713 3.98425C16.9881 4.401 17.2222 4.96623 17.2222 5.5556V17.7778Z" fill="#0C0C0E"/>
<path d="M16.1111 17.7778C16.1111 18.3672 15.877 18.9324 15.4602 19.3491C15.0435 19.7659 14.4783 20 13.8889 20H3.33333C2.74396 20 2.17873 19.7659 1.76198 19.3491C1.34524 18.9324 1.11111 18.3672 1.11111 17.7778V6.66668C1.11111 6.07731 1.34524 5.51208 1.76198 5.09533C2.17873 4.67858 2.74396 4.44446 3.33333 4.44446H14.075C15.3022 4.44446 16.1111 5.25335 16.1111 6.48057V17.7778Z" fill="#0C0C0E"/>
<path d="M3.33333 3.33333C2.39556 3.33333 2.37167 2.26556 2.77778 1.80556C3.24 1.28278 3.95833 1.11111 5.24333 1.11111H6.11111V0H4.60056C2.39556 0 0.555557 1.38889 0.555557 2.98611V17.7778C0.555557 18.3671 0.789684 18.9324 1.20643 19.3491C1.62318 19.7659 2.18841 20 2.77778 20H3.88889V3.33333H3.33333Z" fill="#0C0C0E"/>
<path d="M3.88889 4.44446H5.55556V6.66668H3.88889V4.44446ZM7.77778 4.44446H10V6.66668H7.77778V4.44446ZM14.4444 4.47557C14.3221 4.45698 14.1987 4.44659 14.075 4.44446H12.2222V6.66668H14.4444V4.47557ZM10 6.66668H12.2222V8.8889H10V6.66668ZM14.4444 6.66668H16.1111V8.8889H14.4444V6.66668ZM5.55556 6.66668H7.77778V8.8889H5.55556V6.66668ZM3.88889 8.8889H5.55556V11.1111H3.88889V8.8889ZM7.77778 8.8889H10V11.1111H7.77778V8.8889ZM12.2222 8.8889H14.4444V11.1111H12.2222V8.8889ZM10 11.1111H12.2222V13.3333H10V11.1111ZM14.4444 11.1111H16.1111V13.3333H14.4444V11.1111ZM5.55556 11.1111H7.77778V13.3333H5.55556V11.1111ZM3.88889 13.3333H5.55556V15.5556H3.88889V13.3333ZM7.77778 13.3333H10V15.5556H7.77778V13.3333ZM12.2222 13.3333H14.4444V15.5556H12.2222V13.3333ZM3.88889 17.7778H5.55556V20H3.88889V17.7778ZM7.77778 17.7778H10V20H7.77778V17.7778ZM12.2222 20H13.8889C14.0817 20 14.2661 19.9678 14.4444 19.9217V17.7778H12.2222V20ZM10 15.5556H12.2222V17.7778H10V15.5556ZM14.4444 15.5556H16.1111V17.7778H14.4444V15.5556ZM5.55556 15.5556H7.77778V17.7778H5.55556V15.5556Z" fill="white"/>
</g>
<defs>
<clipPath id="clip0_1886_11555">
<rect width="20" height="20" fill="white"/>
</clipPath>
</defs>
</svg>
