<svg width="13" height="13" viewBox="0 0 13 13" fill="none" xmlns="http://www.w3.org/2000/svg">
<path d="M12.7079 5.49996L9.7317 8.48621C9.70776 8.51014 9.67922 8.52896 9.64779 8.54153C9.61637 8.5541 9.58272 8.56017 9.54888 8.55935C9.51505 8.55853 9.48173 8.55085 9.45095 8.53677C9.42017 8.5227 9.39257 8.50252 9.36982 8.47746L4.74982 3.39183C4.70676 3.34434 4.68359 3.28211 4.68511 3.21802C4.68662 3.15393 4.71269 3.09287 4.75795 3.04746L7.49982 0.293706C7.59268 0.200824 7.70293 0.127144 7.82427 0.0768747C7.94561 0.0266058 8.07567 0.000732422 8.20701 0.000732422C8.33835 0.000732422 8.4684 0.0266058 8.58974 0.0768747C8.71109 0.127144 8.82133 0.200824 8.9142 0.293706L12.7073 4.08621C12.8948 4.27364 13.0002 4.52785 13.0003 4.79295C13.0004 5.05805 12.8953 5.31236 12.7079 5.49996ZM1.36982 1.16371C1.32198 1.11131 1.26353 1.0697 1.19836 1.04164C1.13319 1.01358 1.0628 0.999707 0.991858 1.00095C0.920916 1.00219 0.851051 1.01852 0.786906 1.04884C0.72276 1.07917 0.665804 1.1228 0.619821 1.17683C0.54181 1.2727 0.501169 1.39358 0.505421 1.5171C0.509672 1.64063 0.558528 1.75843 0.642946 1.84871L2.20732 3.57183C1.64107 3.69308 1.01232 3.96058 0.374821 4.47683C0.265399 4.56482 0.175733 4.67486 0.111658 4.7998C0.0475842 4.92474 0.0105387 5.06177 0.00293306 5.20197C-0.00467258 5.34217 0.0173322 5.48241 0.0675152 5.61354C0.117698 5.74468 0.194934 5.86377 0.294196 5.96308L3.31232 8.98183L0.659196 11.6337C0.566743 11.7232 0.511513 11.8444 0.50456 11.9729C0.497607 12.1014 0.539443 12.2278 0.621696 12.3268C0.666613 12.3788 0.72177 12.421 0.783725 12.4508C0.845679 12.4805 0.9131 12.4972 0.981779 12.4997C1.05046 12.5022 1.11892 12.4906 1.18289 12.4654C1.24686 12.4403 1.30496 12.4023 1.35357 12.3537L4.01795 9.68746L7.03607 12.7056C7.12885 12.7988 7.2391 12.8727 7.36051 12.9232C7.48191 12.9737 7.61208 12.9998 7.74357 13C7.76732 13 7.79045 13 7.8142 13C7.95675 12.9901 8.0955 12.9496 8.22103 12.8814C8.34656 12.8131 8.45593 12.7186 8.5417 12.6043C8.83873 12.2174 9.08335 11.7929 9.2692 11.3418L10.6298 12.8387C10.6737 12.8882 10.727 12.9285 10.7866 12.9572C10.8462 12.986 10.9109 13.0026 10.977 13.0062C11.0431 13.0097 11.1092 13.0001 11.1715 12.9779C11.2339 12.9558 11.2912 12.9214 11.3401 12.8769C11.3891 12.8324 11.4287 12.7786 11.4568 12.7187C11.4848 12.6588 11.5007 12.5939 11.5034 12.5278C11.5062 12.4617 11.4958 12.3957 11.4729 12.3336C11.4499 12.2715 11.4149 12.2146 11.3698 12.1662L1.36982 1.16371Z" fill="white"/>
</svg>
