<svg width="17" height="16" viewBox="0 0 17 16" fill="none" xmlns="http://www.w3.org/2000/svg">
<path d="M15.1668 8.00016C15.1668 11.6821 12.1821 14.6668 8.50016 14.6668M15.1668 8.00016C15.1668 4.31826 12.1821 1.3335 8.50016 1.3335M15.1668 8.00016H1.8335M8.50016 14.6668C4.81826 14.6668 1.8335 11.6821 1.8335 8.00016M8.50016 14.6668C6.78832 12.8694 5.8335 10.4823 5.8335 8.00016C5.8335 5.51799 6.78832 3.13093 8.50016 1.3335M8.50016 14.6668C10.212 12.8694 11.1668 10.4823 11.1668 8.00016C11.1668 5.51799 10.212 3.13093 8.50016 1.3335M1.8335 8.00016C1.8335 4.31826 4.81826 1.3335 8.50016 1.3335" stroke="#0FB4E5" stroke-width="2" stroke-linecap="round" stroke-linejoin="round"/>
</svg>
