<svg width="20" height="20" viewBox="0 0 20 20" fill="none" xmlns="http://www.w3.org/2000/svg">
<path fill-rule="evenodd" clip-rule="evenodd" d="M6.66683 0.833252C6.55561 0.833263 6.44552 0.855536 6.34305 0.898758C6.24058 0.94198 6.14779 1.00528 6.07016 1.08492L1.07016 6.21492C0.918443 6.37053 0.833518 6.57925 0.833496 6.79659V13.3333C0.833543 13.5542 0.921372 13.7662 1.07766 13.9224L6.07766 18.9224C6.23391 19.0787 6.44583 19.1665 6.66683 19.1666H13.3335C13.5545 19.1665 13.7664 19.0787 13.9227 18.9224L18.9227 13.9224C19.079 13.7662 19.1668 13.5542 19.1668 13.3333V6.79659C19.1668 6.57925 19.0819 6.37053 18.9302 6.21492L13.9302 1.08492C13.8525 1.00528 13.7597 0.94198 13.6573 0.898758C13.5548 0.855536 13.4447 0.833263 13.3335 0.833252H6.66683ZM6.66683 9.16659C6.44582 9.16659 6.23385 9.25438 6.07757 9.41066C5.92129 9.56694 5.8335 9.7789 5.8335 9.99992C5.8335 10.2209 5.92129 10.4329 6.07757 10.5892C6.23385 10.7455 6.44582 10.8333 6.66683 10.8333H13.3335C13.5545 10.8333 13.7665 10.7455 13.9228 10.5892C14.079 10.4329 14.1668 10.2209 14.1668 9.99992C14.1668 9.7789 14.079 9.56694 13.9228 9.41066C13.7665 9.25438 13.5545 9.16659 13.3335 9.16659H6.66683Z" fill="#FF5F4E"/>
</svg>
