<svg width="20" height="20" viewBox="0 0 20 20" fill="none" xmlns="http://www.w3.org/2000/svg">
<path d="M0 2.5C0 1.11929 1.11929 0 2.5 0V2.5H0Z" fill="white"/>
<rect width="2.5" height="2.5" transform="translate(2.5)" fill="#868686"/>
<g clip-path="url(#clip0_6328_51537)">
<rect width="2.5" height="2.5" transform="translate(5)" fill="white"/>
</g>
<g clip-path="url(#clip1_6328_51537)">
<rect width="2.5" height="2.5" transform="translate(7.5)" fill="#868686"/>
</g>
<g clip-path="url(#clip2_6328_51537)">
<rect width="2.5" height="2.5" transform="translate(10)" fill="white"/>
</g>
<g clip-path="url(#clip3_6328_51537)">
<rect width="2.5" height="2.5" transform="translate(12.5)" fill="#868686"/>
</g>
<g clip-path="url(#clip4_6328_51537)">
<rect width="2.5" height="2.5" transform="translate(15)" fill="white"/>
</g>
<g clip-path="url(#clip5_6328_51537)">
<path d="M17.5 0C18.8807 0 20 1.11929 20 2.5H17.5V0Z" fill="#868686"/>
<path d="M19.8359 1.00596C19.8103 1.00596 19.7876 1.00149 19.7679 0.992545C19.7483 0.9836 19.733 0.971258 19.7219 0.95552C19.7108 0.939783 19.7052 0.921726 19.7052 0.90135C19.7052 0.884784 19.7088 0.869792 19.7159 0.856373C19.723 0.842789 19.7327 0.83169 19.745 0.823076C19.7574 0.814296 19.7715 0.808912 19.7872 0.806924C19.7669 0.803114 19.7503 0.793754 19.7375 0.778845C19.7248 0.763935 19.7184 0.745464 19.7184 0.723432C19.7184 0.704215 19.7235 0.687152 19.7336 0.672243C19.7437 0.657168 19.7576 0.645323 19.7753 0.636709C19.793 0.628095 19.8132 0.623787 19.8359 0.623787C19.8586 0.623787 19.8788 0.628095 19.8963 0.636709C19.914 0.645157 19.928 0.656919 19.9381 0.671994C19.9482 0.687069 19.9532 0.704215 19.9532 0.723432C19.9532 0.745299 19.9468 0.76377 19.9338 0.778845C19.9211 0.793754 19.9047 0.803114 19.8846 0.806924C19.9004 0.809077 19.9144 0.814544 19.9266 0.823324C19.9391 0.831938 19.9488 0.843038 19.956 0.856622C19.9631 0.87004 19.9666 0.88495 19.9666 0.90135C19.9666 0.921726 19.9611 0.939783 19.95 0.95552C19.9389 0.971258 19.9235 0.9836 19.9038 0.992545C19.8841 1.00149 19.8614 1.00596 19.8359 1.00596ZM19.8359 0.960987C19.8588 0.960987 19.8771 0.955272 19.8909 0.943841C19.9046 0.932411 19.9115 0.91717 19.9115 0.898119C19.9115 0.878737 19.9044 0.862834 19.8901 0.85041C19.876 0.837819 19.858 0.831524 19.8359 0.831524C19.8137 0.831524 19.7955 0.837819 19.7813 0.85041C19.767 0.862834 19.7599 0.878737 19.7599 0.898119C19.7599 0.917005 19.7668 0.932245 19.7805 0.943841C19.7944 0.955272 19.8129 0.960987 19.8359 0.960987ZM19.8359 0.787045C19.855 0.787045 19.8704 0.781661 19.8822 0.770893C19.8941 0.759959 19.9 0.745547 19.9 0.727656C19.9 0.710096 19.8942 0.695932 19.8824 0.685164C19.8706 0.674396 19.8552 0.669012 19.8359 0.669012C19.8166 0.669012 19.801 0.674396 19.7892 0.685164C19.7775 0.695932 19.7716 0.710096 19.7716 0.727656C19.7716 0.745381 19.7775 0.759711 19.7892 0.770644C19.8011 0.781578 19.8167 0.787045 19.8359 0.787045Z" fill="#555555" fill-opacity="0.7"/>
</g>
<g clip-path="url(#clip6_6328_51537)">
<rect width="2.5" height="2.5" transform="translate(0 2.5)" fill="#868686"/>
</g>
<g clip-path="url(#clip7_6328_51537)">
<rect width="2.5" height="2.5" transform="translate(2.5 2.5)" fill="white"/>
</g>
<g clip-path="url(#clip8_6328_51537)">
<rect width="2.5" height="2.5" transform="translate(5 2.5)" fill="#868686"/>
</g>
<g clip-path="url(#clip9_6328_51537)">
<rect width="2.5" height="2.5" transform="translate(7.5 2.5)" fill="white"/>
</g>
<g clip-path="url(#clip10_6328_51537)">
<rect width="2.5" height="2.5" transform="translate(10 2.5)" fill="#868686"/>
</g>
<g clip-path="url(#clip11_6328_51537)">
<rect width="2.5" height="2.5" transform="translate(12.5 2.5)" fill="white"/>
</g>
<g clip-path="url(#clip12_6328_51537)">
<rect width="2.5" height="2.5" transform="translate(15 2.5)" fill="#868686"/>
</g>
<g clip-path="url(#clip13_6328_51537)">
<rect width="2.5" height="2.5" transform="translate(17.5 2.5)" fill="white"/>
<path d="M19.7393 3.5L19.9023 3.17771V3.17746H19.7137V3.12975H19.9579V3.17895L19.7964 3.5H19.7393Z" fill="#555555" fill-opacity="0.7"/>
</g>
<g clip-path="url(#clip14_6328_51537)">
<rect width="2.5" height="2.5" transform="translate(0 5)" fill="white"/>
</g>
<g clip-path="url(#clip15_6328_51537)">
<rect width="2.5" height="2.5" transform="translate(2.5 5)" fill="#868686"/>
</g>
<g clip-path="url(#clip16_6328_51537)">
<rect width="2.5" height="2.5" transform="translate(5 5)" fill="white"/>
</g>
<g clip-path="url(#clip17_6328_51537)">
<rect width="2.5" height="2.5" transform="translate(7.5 5)" fill="#868686"/>
</g>
<rect width="2.5" height="2.5" transform="translate(10 5)" fill="white"/>
<rect width="2.5" height="2.5" transform="translate(12.5 5)" fill="#868686"/>
<g clip-path="url(#clip18_6328_51537)">
<rect width="2.5" height="2.5" transform="translate(15 5)" fill="white"/>
</g>
<g clip-path="url(#clip19_6328_51537)">
<rect width="2.5" height="2.5" transform="translate(17.5 5)" fill="#868686"/>
<path d="M19.8389 6.02842C19.7962 6.02842 19.763 6.01294 19.7395 5.98196C19.7162 5.95098 19.7045 5.90733 19.7045 5.851C19.7045 5.80975 19.7095 5.77381 19.7196 5.74316C19.7297 5.71251 19.7451 5.68874 19.7656 5.67184C19.7863 5.65478 19.8124 5.64625 19.8439 5.64625C19.8664 5.64625 19.8862 5.65056 19.9033 5.65917C19.9205 5.66762 19.9343 5.67946 19.9448 5.6947C19.9552 5.70994 19.9615 5.7275 19.9637 5.74738H19.9107C19.9076 5.73065 19.9004 5.71732 19.8891 5.70738C19.878 5.69744 19.8634 5.69247 19.8454 5.69247C19.8253 5.69247 19.8087 5.69818 19.7954 5.70961C19.7823 5.72104 19.7726 5.73678 19.7661 5.75683C19.7597 5.77687 19.7564 5.79998 19.7564 5.82615H19.7569C19.7655 5.81191 19.778 5.80073 19.7942 5.79261C19.8106 5.78433 19.8286 5.78018 19.8484 5.78018C19.8711 5.78018 19.8914 5.78557 19.9092 5.79634C19.9271 5.80694 19.9412 5.82152 19.9515 5.84007C19.9619 5.85862 19.9671 5.87966 19.9671 5.90319C19.9671 5.92787 19.9617 5.94965 19.9507 5.96854C19.9398 5.98726 19.9246 6.00192 19.9053 6.01252C19.886 6.02312 19.8639 6.02842 19.8389 6.02842ZM19.8387 5.98196C19.8528 5.98196 19.8654 5.97848 19.8767 5.97152C19.8881 5.9644 19.8971 5.95495 19.9038 5.94319C19.9106 5.93127 19.914 5.91793 19.914 5.90319C19.914 5.88861 19.9107 5.87552 19.9043 5.86392C19.8978 5.85216 19.8889 5.84289 19.8777 5.83609C19.8666 5.82914 19.854 5.82566 19.8399 5.82566C19.8258 5.82566 19.813 5.82914 19.8014 5.83609C19.79 5.84305 19.7809 5.85241 19.7741 5.86417C19.7673 5.87594 19.7639 5.88911 19.7639 5.90368C19.7639 5.9181 19.7672 5.93127 19.7738 5.94319C19.7806 5.95495 19.7896 5.9644 19.8009 5.97152C19.8123 5.97848 19.8249 5.98196 19.8387 5.98196Z" fill="#555555" fill-opacity="0.7"/>
</g>
<g clip-path="url(#clip20_6328_51537)">
<rect width="2.5" height="2.5" transform="translate(0 7.5)" fill="#868686"/>
</g>
<rect width="2.5" height="2.5" transform="translate(2.5 7.5)" fill="white"/>
<g clip-path="url(#clip21_6328_51537)">
<rect width="2.5" height="2.5" transform="translate(5 7.5)" fill="#868686"/>
</g>
<rect width="2.5" height="2.5" transform="translate(7.5 7.5)" fill="white"/>
<g clip-path="url(#clip22_6328_51537)">
<rect width="2.5" height="2.5" transform="translate(10 7.5)" fill="#868686"/>
</g>
<rect width="2.5" height="2.5" transform="translate(12.5 7.5)" fill="white"/>
<g clip-path="url(#clip23_6328_51537)">
<rect width="2.5" height="2.5" transform="translate(15 7.5)" fill="#868686"/>
</g>
<g clip-path="url(#clip24_6328_51537)">
<rect width="2.5" height="2.5" transform="translate(17.5 7.5)" fill="white"/>
<path d="M19.8362 8.49911C19.8115 8.49911 19.7895 8.49423 19.7701 8.48445C19.7509 8.47451 19.7355 8.46093 19.7239 8.4437C19.7124 8.42631 19.7062 8.40651 19.7052 8.38431H19.7592C19.7608 8.40419 19.7688 8.42059 19.783 8.43351C19.7974 8.44627 19.8152 8.45265 19.8364 8.45265C19.8588 8.45265 19.8769 8.44511 19.8906 8.43003C19.9045 8.41496 19.9115 8.39566 19.9115 8.37214C19.9115 8.34878 19.9048 8.32956 19.8914 8.31449C19.8779 8.29925 19.8605 8.29163 19.8389 8.29163C19.82 8.29163 19.8038 8.29552 19.7902 8.30331C19.7766 8.31093 19.7672 8.32202 19.7619 8.3366H19.71L19.7221 8.12365H19.9435V8.17086H19.7716L19.7634 8.27995H19.7639C19.7856 8.25692 19.8133 8.24541 19.8471 8.24541C19.8696 8.24541 19.8897 8.25087 19.9073 8.26181C19.925 8.27258 19.9389 8.28748 19.949 8.30654C19.9593 8.32542 19.9644 8.34696 19.9644 8.37114C19.9644 8.39616 19.959 8.41827 19.9483 8.43749C19.9377 8.45671 19.9227 8.47178 19.9035 8.48271C19.8843 8.49365 19.8619 8.49911 19.8362 8.49911Z" fill="#555555" fill-opacity="0.7"/>
</g>
<g clip-path="url(#clip25_6328_51537)">
<rect width="2.5" height="2.5" transform="translate(0 10)" fill="white"/>
</g>
<g clip-path="url(#clip26_6328_51537)">
<rect width="2.5" height="2.5" transform="translate(2.5 10)" fill="#868686"/>
</g>
<g clip-path="url(#clip27_6328_51537)">
<rect width="2.5" height="2.5" transform="translate(5 10)" fill="white"/>
</g>
<g clip-path="url(#clip28_6328_51537)">
<rect width="2.5" height="2.5" transform="translate(7.5 10)" fill="#868686"/>
</g>
<g clip-path="url(#clip29_6328_51537)">
<rect width="2.5" height="2.5" transform="translate(10 10)" fill="white"/>
</g>
<g clip-path="url(#clip30_6328_51537)">
<rect width="2.5" height="2.5" transform="translate(12.5 10)" fill="#868686"/>
</g>
<g clip-path="url(#clip31_6328_51537)">
<rect width="2.5" height="2.5" transform="translate(15 10)" fill="white"/>
</g>
<g clip-path="url(#clip32_6328_51537)">
<rect width="2.5" height="2.5" transform="translate(17.5 10)" fill="#868686"/>
<path d="M19.6888 10.9301V10.8859L19.8613 10.6461H19.9289V10.8839H19.9828V10.9301H19.9289V11.0164H19.8764V10.9301H19.6888ZM19.8764 10.8839V10.704H19.8759L19.7472 10.8834V10.8839H19.8764Z" fill="#555555" fill-opacity="0.7"/>
</g>
<g clip-path="url(#clip33_6328_51537)">
<rect width="2.5" height="2.5" transform="translate(0 12.5)" fill="#868686"/>
</g>
<rect width="2.5" height="2.5" transform="translate(2.5 12.5)" fill="white"/>
<g clip-path="url(#clip34_6328_51537)">
<rect width="2.5" height="2.5" transform="translate(5 12.5)" fill="#868686"/>
</g>
<rect width="2.5" height="2.5" transform="translate(7.5 12.5)" fill="white"/>
<g clip-path="url(#clip35_6328_51537)">
<rect width="2.5" height="2.5" transform="translate(10 12.5)" fill="#868686"/>
</g>
<rect width="2.5" height="2.5" transform="translate(12.5 12.5)" fill="white"/>
<g clip-path="url(#clip36_6328_51537)">
<rect width="2.5" height="2.5" transform="translate(15 12.5)" fill="#868686"/>
</g>
<g clip-path="url(#clip37_6328_51537)">
<rect width="2.5" height="2.5" transform="translate(17.5 12.5)" fill="white"/>
<path d="M19.8374 13.4938C19.8101 13.4938 19.7864 13.4884 19.7664 13.4776C19.7465 13.4668 19.7311 13.4521 19.7201 13.4334C19.7092 13.4147 19.7037 13.3934 19.7037 13.3695H19.7582C19.7582 13.3942 19.765 13.4134 19.7788 13.4272C19.7927 13.4409 19.8119 13.4478 19.8364 13.4478C19.86 13.4478 19.879 13.4418 19.8936 13.4299C19.9083 13.418 19.9157 13.402 19.9157 13.3819C19.9157 13.3635 19.9078 13.3488 19.8921 13.3377C19.8765 13.3264 19.856 13.3208 19.8305 13.3208H19.7997V13.2758H19.8305C19.853 13.2758 19.8711 13.2707 19.8849 13.2604C19.8988 13.2502 19.9058 13.2365 19.9058 13.2194C19.9058 13.2002 19.8993 13.1851 19.8864 13.174C19.8735 13.1629 19.8564 13.1573 19.8352 13.1573C19.8133 13.1573 19.796 13.1634 19.7833 13.1757C19.7707 13.1879 19.7644 13.2048 19.7644 13.2264H19.7114C19.7114 13.204 19.7167 13.1842 19.7271 13.167C19.7375 13.1496 19.752 13.136 19.7706 13.1262C19.7891 13.1165 19.8108 13.1116 19.8354 13.1116C19.859 13.1116 19.88 13.1161 19.8986 13.125C19.9171 13.1338 19.9317 13.146 19.9423 13.1618C19.9531 13.1773 19.9584 13.1952 19.9584 13.2152C19.9584 13.2347 19.9523 13.2517 19.9401 13.2661C19.9278 13.2804 19.9113 13.2903 19.8906 13.296V13.2967C19.915 13.3005 19.9343 13.3105 19.9485 13.3265C19.9627 13.3426 19.9699 13.3616 19.9699 13.3834C19.9699 13.405 19.9642 13.424 19.9527 13.4406C19.9413 13.4571 19.9256 13.4702 19.9055 13.4796C19.8856 13.489 19.8629 13.4938 19.8374 13.4938Z" fill="#555555" fill-opacity="0.7"/>
</g>
<g clip-path="url(#clip38_6328_51537)">
<rect width="2.5" height="2.5" transform="translate(0 15)" fill="white"/>
</g>
<g clip-path="url(#clip39_6328_51537)">
<rect width="2.5" height="2.5" transform="translate(2.5 15)" fill="#868686"/>
</g>
<g clip-path="url(#clip40_6328_51537)">
<rect width="2.5" height="2.5" transform="translate(5 15)" fill="white"/>
</g>
<g clip-path="url(#clip41_6328_51537)">
<rect width="2.5" height="2.5" transform="translate(7.5 15)" fill="#868686"/>
</g>
<g clip-path="url(#clip42_6328_51537)">
<rect width="2.5" height="2.5" transform="translate(10 15)" fill="white"/>
</g>
<g clip-path="url(#clip43_6328_51537)">
<rect width="2.5" height="2.5" transform="translate(12.5 15)" fill="#868686"/>
</g>
<g clip-path="url(#clip44_6328_51537)">
<rect width="2.5" height="2.5" transform="translate(15 15)" fill="white"/>
</g>
<g clip-path="url(#clip45_6328_51537)">
<rect width="2.5" height="2.5" transform="translate(17.5 15)" fill="#868686"/>
<path d="M19.7105 16.0101V15.9664L19.8436 15.8476C19.8577 15.8349 19.8695 15.8234 19.8789 15.8133C19.8884 15.8031 19.8954 15.793 19.9 15.783C19.9049 15.7731 19.9073 15.7619 19.9073 15.7495C19.9073 15.7284 19.901 15.7118 19.8884 15.6995C19.8758 15.6871 19.8586 15.6809 19.8369 15.6809C19.8134 15.6809 19.7951 15.6882 19.782 15.7028C19.7689 15.7173 19.7624 15.7371 19.7624 15.7621H19.7109C19.7109 15.7368 19.7161 15.7145 19.7264 15.6953C19.7368 15.6761 19.7514 15.6611 19.7701 15.6503C19.789 15.6394 19.8112 15.6339 19.8367 15.6339C19.8605 15.6339 19.8817 15.6387 19.9 15.6483C19.9184 15.6578 19.9328 15.671 19.9433 15.6881C19.9539 15.705 19.9592 15.7246 19.9592 15.747C19.9592 15.7717 19.9524 15.7939 19.9388 15.8138C19.9252 15.8335 19.9051 15.8553 19.8784 15.8792L19.7855 15.9627V15.9632H19.9612V16.0101H19.7105Z" fill="#555555" fill-opacity="0.7"/>
</g>
<g clip-path="url(#clip46_6328_51537)">
<path d="M0 17.5H2.5V20C1.11929 20 0 18.8807 0 17.5Z" fill="#868686"/>
<path d="M0.56084 19.8846C0.534666 19.8846 0.512965 19.878 0.495736 19.8647C0.478507 19.8513 0.469893 19.8315 0.469893 19.8053C0.469893 19.7854 0.47478 19.7702 0.484554 19.7596C0.494493 19.7488 0.507332 19.7411 0.52307 19.7365C0.538973 19.7319 0.555787 19.7285 0.573513 19.7263C0.589913 19.7243 0.602918 19.7227 0.612526 19.7213C0.622134 19.72 0.628926 19.718 0.632902 19.7154C0.637043 19.7127 0.639114 19.7082 0.639114 19.7017V19.6995C0.639114 19.6867 0.634476 19.6763 0.625199 19.6682C0.615922 19.6599 0.602918 19.6557 0.586186 19.6557C0.569454 19.6557 0.555787 19.6598 0.545185 19.6679C0.534583 19.6759 0.528785 19.6859 0.527791 19.698H0.476354C0.477513 19.673 0.488033 19.6525 0.507912 19.6366C0.527791 19.6207 0.554131 19.6127 0.586931 19.6127C0.619235 19.6127 0.644664 19.6207 0.663218 19.6366C0.681771 19.6525 0.691048 19.6738 0.691048 19.7005V19.8804H0.639363V19.8431H0.638369C0.632902 19.8537 0.624205 19.8633 0.612277 19.8719C0.600516 19.8804 0.58337 19.8846 0.56084 19.8846ZM0.571525 19.8424C0.594717 19.8424 0.61178 19.8364 0.622714 19.8245C0.633813 19.8124 0.639363 19.7983 0.639363 19.7822V19.7514C0.635884 19.7542 0.628015 19.7568 0.615756 19.7591C0.603497 19.7613 0.59041 19.7633 0.576495 19.7653C0.562083 19.7675 0.54941 19.7715 0.538476 19.7775C0.527543 19.7835 0.522076 19.7931 0.522076 19.8063C0.522076 19.8176 0.526466 19.8264 0.535246 19.8329C0.544191 19.8392 0.556284 19.8424 0.571525 19.8424Z" fill="#555555" fill-opacity="0.7"/>
</g>
<g clip-path="url(#clip47_6328_51537)">
<rect width="2.5" height="2.5" transform="translate(2.5 17.5)" fill="white"/>
<path d="M3.12455 19.8856C3.10749 19.8856 3.09183 19.8819 3.07759 19.8744C3.0635 19.867 3.05207 19.8556 3.04329 19.8404H3.0428V19.8804H2.99136V19.5101H3.04379V19.656H3.04429C3.05274 19.6414 3.064 19.6306 3.07808 19.6234C3.09216 19.6163 3.10774 19.6127 3.1248 19.6127C3.14733 19.6127 3.16712 19.6185 3.18419 19.6301C3.20125 19.6416 3.2145 19.6576 3.22395 19.6781C3.23355 19.6985 3.23836 19.7222 3.23836 19.7492C3.23836 19.7762 3.23364 19.7999 3.22419 19.8205C3.21475 19.8409 3.2015 19.8568 3.18444 19.8684C3.16737 19.8799 3.14741 19.8856 3.12455 19.8856ZM3.11387 19.8404C3.13507 19.8404 3.15222 19.8326 3.1653 19.817C3.17856 19.8014 3.18518 19.7788 3.18518 19.7492C3.18518 19.7195 3.17856 19.6969 3.1653 19.6813C3.15222 19.6656 3.13507 19.6577 3.11387 19.6577C3.0915 19.6577 3.07361 19.6661 3.06019 19.6828C3.04694 19.6994 3.04031 19.7215 3.04031 19.7492C3.04031 19.7767 3.04694 19.7988 3.06019 19.8155C3.07361 19.8321 3.0915 19.8404 3.11387 19.8404Z" fill="#555555" fill-opacity="0.7"/>
</g>
<g clip-path="url(#clip48_6328_51537)">
<rect width="2.5" height="2.5" transform="translate(5 17.5)" fill="#868686"/>
<path d="M5.61436 19.8863C5.58935 19.8863 5.5674 19.8805 5.54851 19.8689C5.52979 19.8573 5.51522 19.8413 5.50478 19.8207C5.49434 19.8 5.48912 19.7763 5.48912 19.7497C5.48912 19.7227 5.49434 19.6988 5.50478 19.6781C5.51538 19.6574 5.53004 19.6412 5.54876 19.6296C5.56748 19.6179 5.58935 19.612 5.61436 19.612C5.63524 19.612 5.65387 19.6161 5.67027 19.6244C5.68684 19.6325 5.70026 19.6438 5.71053 19.6582C5.7208 19.6726 5.72701 19.6891 5.72916 19.7077H5.67698C5.67433 19.6929 5.6677 19.6808 5.6571 19.6714C5.6465 19.6619 5.63234 19.6572 5.61461 19.6572C5.59192 19.6572 5.57419 19.6656 5.56143 19.6823C5.54868 19.6991 5.5423 19.7215 5.5423 19.7497C5.5423 19.7775 5.54868 19.7997 5.56143 19.8163C5.57419 19.8328 5.59192 19.8411 5.61461 19.8411C5.63267 19.8411 5.64658 19.8366 5.65636 19.8274C5.66613 19.8182 5.67276 19.8058 5.67624 19.7904H5.72916C5.72718 19.8086 5.72105 19.825 5.71078 19.8396C5.70051 19.854 5.68709 19.8655 5.67052 19.8739C5.65395 19.8822 5.63524 19.8863 5.61436 19.8863Z" fill="#555555" fill-opacity="0.7"/>
</g>
<g clip-path="url(#clip49_6328_51537)">
<rect width="2.5" height="2.5" transform="translate(7.5 17.5)" fill="white"/>
<path d="M8.09225 19.8856C8.06939 19.8856 8.04942 19.8799 8.03236 19.8684C8.0153 19.8568 8.00205 19.8409 7.9926 19.8205C7.98316 19.7999 7.97844 19.7762 7.97844 19.7492C7.97844 19.7222 7.98316 19.6985 7.9926 19.6781C8.00221 19.6576 8.01555 19.6416 8.03261 19.6301C8.04967 19.6185 8.06947 19.6127 8.092 19.6127C8.10906 19.6127 8.12463 19.6163 8.13871 19.6234C8.1528 19.6306 8.16406 19.6414 8.17251 19.656H8.17301V19.5101H8.22544V19.8804H8.174V19.8404H8.1735C8.16472 19.8556 8.15321 19.867 8.13896 19.8744C8.12488 19.8819 8.10931 19.8856 8.09225 19.8856ZM8.10293 19.8404C8.1253 19.8404 8.1431 19.8321 8.15636 19.8155C8.16978 19.7988 8.17648 19.7767 8.17648 19.7492C8.17648 19.7215 8.16978 19.6994 8.15636 19.6828C8.1431 19.6661 8.1253 19.6577 8.10293 19.6577C8.08173 19.6577 8.0645 19.6656 8.05125 19.6813C8.03816 19.6969 8.03162 19.7195 8.03162 19.7492C8.03162 19.7788 8.03816 19.8014 8.05125 19.817C8.0645 19.8326 8.08173 19.8404 8.10293 19.8404Z" fill="#555555" fill-opacity="0.7"/>
</g>
<g clip-path="url(#clip50_6328_51537)">
<rect width="2.5" height="2.5" transform="translate(10 17.5)" fill="#868686"/>
<path d="M10.6114 19.8863C10.5854 19.8863 10.563 19.8805 10.5443 19.8687C10.5257 19.8569 10.5114 19.8408 10.5013 19.8202C10.4914 19.7995 10.4864 19.776 10.4864 19.7497C10.4864 19.723 10.4916 19.6993 10.502 19.6786C10.5125 19.6579 10.5269 19.6417 10.5453 19.6299C10.5637 19.618 10.5848 19.612 10.6086 19.612C10.6335 19.612 10.655 19.6178 10.6733 19.6294C10.6916 19.641 10.7059 19.6571 10.716 19.6779C10.7261 19.6984 10.7312 19.7222 10.7312 19.7492V19.7633H10.5381C10.5391 19.787 10.5459 19.8062 10.5585 19.8207C10.5712 19.8353 10.5891 19.8426 10.6121 19.8426C10.6294 19.8426 10.6435 19.8387 10.6546 19.8309C10.6657 19.8231 10.6731 19.813 10.6767 19.8006H10.7272C10.724 19.8175 10.717 19.8324 10.7061 19.8453C10.6953 19.8583 10.6817 19.8684 10.6653 19.8756C10.6491 19.8828 10.6311 19.8863 10.6114 19.8863ZM10.5386 19.7236H10.68C10.6778 19.7027 10.6704 19.6862 10.6578 19.6741C10.6453 19.6619 10.629 19.6557 10.6091 19.6557C10.5893 19.6557 10.573 19.6619 10.5604 19.6741C10.548 19.6862 10.5407 19.7027 10.5386 19.7236Z" fill="#555555" fill-opacity="0.7"/>
</g>
<g clip-path="url(#clip51_6328_51537)">
<rect width="2.5" height="2.5" transform="translate(12.5 17.5)" fill="white"/>
<path d="M13.2325 19.618V19.6612H13.1791V19.8804H13.1266V19.6612H13.0797V19.618H13.1266V19.5755C13.1266 19.5548 13.1331 19.5387 13.146 19.5273C13.1591 19.5158 13.1775 19.5101 13.2012 19.5101H13.2325V19.5534H13.2094C13.1983 19.5534 13.1904 19.5557 13.1858 19.5603C13.1813 19.565 13.1791 19.5728 13.1791 19.5839V19.618H13.2325Z" fill="#555555" fill-opacity="0.7"/>
</g>
<g clip-path="url(#clip52_6328_51537)">
<rect width="2.5" height="2.5" transform="translate(15 17.5)" fill="#868686"/>
<path d="M15.6059 19.9877C15.5738 19.9877 15.5475 19.9806 15.5271 19.9663C15.5068 19.9521 15.4948 19.9321 15.4914 19.9065H15.5438C15.5471 19.9192 15.5543 19.9288 15.5654 19.9353C15.5765 19.9417 15.59 19.945 15.6059 19.945C15.6271 19.945 15.6437 19.9393 15.6556 19.9278C15.6675 19.9164 15.6735 19.9001 15.6735 19.8789V19.8391H15.6733C15.6641 19.8544 15.6526 19.8656 15.6387 19.8729C15.625 19.8802 15.6095 19.8838 15.5922 19.8838C15.5694 19.8838 15.5494 19.8781 15.5324 19.8667C15.5153 19.8551 15.502 19.8392 15.4926 19.819C15.4832 19.7986 15.4784 19.7751 15.4784 19.7484C15.4784 19.7218 15.4832 19.6982 15.4926 19.6779C15.5022 19.6575 15.5155 19.6416 15.5326 19.6301C15.5497 19.6185 15.5695 19.6127 15.592 19.6127C15.6091 19.6127 15.6247 19.6164 15.639 19.6237C15.6532 19.631 15.6647 19.6424 15.6735 19.658H15.6738V19.618H15.7254V19.8769C15.7254 19.9034 15.7201 19.9248 15.7093 19.941C15.6985 19.9572 15.6841 19.9691 15.666 19.9765C15.648 19.984 15.6279 19.9877 15.6059 19.9877ZM15.6029 19.8389C15.6253 19.8389 15.6431 19.8307 15.6564 19.8143C15.6698 19.7977 15.6765 19.7757 15.6765 19.7482C15.6765 19.7207 15.6698 19.6987 15.6564 19.6823C15.6431 19.6658 15.6253 19.6575 15.6029 19.6575C15.5817 19.6575 15.5645 19.6653 15.5512 19.6808C15.5382 19.6962 15.5316 19.7187 15.5316 19.7482C15.5316 19.7777 15.5382 19.8002 15.5512 19.8158C15.5645 19.8312 15.5817 19.8389 15.6029 19.8389Z" fill="#555555" fill-opacity="0.7"/>
</g>
<g clip-path="url(#clip53_6328_51537)">
<path d="M17.5 17.5H20C20 18.8807 18.8807 20 17.5 20V17.5Z" fill="white"/>
<path d="M18.048 19.7293V19.8804H17.9956V19.5101H18.048V19.6557C18.0661 19.6271 18.0922 19.6127 18.1263 19.6127C18.1443 19.6127 18.1605 19.6167 18.1747 19.6247C18.1892 19.6325 18.2005 19.6441 18.2088 19.6595C18.2171 19.6749 18.2212 19.694 18.2212 19.7169V19.8804H18.1688V19.7233C18.1688 19.7023 18.1637 19.6865 18.1536 19.6759C18.1435 19.6651 18.1294 19.6597 18.1114 19.6597C18.0935 19.6597 18.0784 19.6653 18.0662 19.6764C18.0541 19.6873 18.048 19.7049 18.048 19.7293Z" fill="#555555" fill-opacity="0.7"/>
<path d="M19.9474 18.1623V18.5326H19.8939V18.2165H19.8937L19.8032 18.2757V18.223L19.8954 18.1623H19.9474Z" fill="#555555" fill-opacity="0.7"/>
</g>
<defs>
<clipPath id="clip0_6328_51537">
<rect width="2.5" height="2.5" fill="white" transform="translate(5)"/>
</clipPath>
<clipPath id="clip1_6328_51537">
<rect width="2.5" height="2.5" fill="white" transform="translate(7.5)"/>
</clipPath>
<clipPath id="clip2_6328_51537">
<rect width="2.5" height="2.5" fill="white" transform="translate(10)"/>
</clipPath>
<clipPath id="clip3_6328_51537">
<rect width="2.5" height="2.5" fill="white" transform="translate(12.5)"/>
</clipPath>
<clipPath id="clip4_6328_51537">
<rect width="2.5" height="2.5" fill="white" transform="translate(15)"/>
</clipPath>
<clipPath id="clip5_6328_51537">
<path d="M17.5 0C18.8807 0 20 1.11929 20 2.5H17.5V0Z" fill="white"/>
</clipPath>
<clipPath id="clip6_6328_51537">
<rect width="2.5" height="2.5" fill="white" transform="translate(0 2.5)"/>
</clipPath>
<clipPath id="clip7_6328_51537">
<rect width="2.5" height="2.5" fill="white" transform="translate(2.5 2.5)"/>
</clipPath>
<clipPath id="clip8_6328_51537">
<rect width="2.5" height="2.5" fill="white" transform="translate(5 2.5)"/>
</clipPath>
<clipPath id="clip9_6328_51537">
<rect width="2.5" height="2.5" fill="white" transform="translate(7.5 2.5)"/>
</clipPath>
<clipPath id="clip10_6328_51537">
<rect width="2.5" height="2.5" fill="white" transform="translate(10 2.5)"/>
</clipPath>
<clipPath id="clip11_6328_51537">
<rect width="2.5" height="2.5" fill="white" transform="translate(12.5 2.5)"/>
</clipPath>
<clipPath id="clip12_6328_51537">
<rect width="2.5" height="2.5" fill="white" transform="translate(15 2.5)"/>
</clipPath>
<clipPath id="clip13_6328_51537">
<rect width="2.5" height="2.5" fill="white" transform="translate(17.5 2.5)"/>
</clipPath>
<clipPath id="clip14_6328_51537">
<rect width="2.5" height="2.5" fill="white" transform="translate(0 5)"/>
</clipPath>
<clipPath id="clip15_6328_51537">
<rect width="2.5" height="2.5" fill="white" transform="translate(2.5 5)"/>
</clipPath>
<clipPath id="clip16_6328_51537">
<rect width="2.5" height="2.5" fill="white" transform="translate(5 5)"/>
</clipPath>
<clipPath id="clip17_6328_51537">
<rect width="2.5" height="2.5" fill="white" transform="translate(7.5 5)"/>
</clipPath>
<clipPath id="clip18_6328_51537">
<rect width="2.5" height="2.5" fill="white" transform="translate(15 5)"/>
</clipPath>
<clipPath id="clip19_6328_51537">
<rect width="2.5" height="2.5" fill="white" transform="translate(17.5 5)"/>
</clipPath>
<clipPath id="clip20_6328_51537">
<rect width="2.5" height="2.5" fill="white" transform="translate(0 7.5)"/>
</clipPath>
<clipPath id="clip21_6328_51537">
<rect width="2.5" height="2.5" fill="white" transform="translate(5 7.5)"/>
</clipPath>
<clipPath id="clip22_6328_51537">
<rect width="2.5" height="2.5" fill="white" transform="translate(10 7.5)"/>
</clipPath>
<clipPath id="clip23_6328_51537">
<rect width="2.5" height="2.5" fill="white" transform="translate(15 7.5)"/>
</clipPath>
<clipPath id="clip24_6328_51537">
<rect width="2.5" height="2.5" fill="white" transform="translate(17.5 7.5)"/>
</clipPath>
<clipPath id="clip25_6328_51537">
<rect width="2.5" height="2.5" fill="white" transform="translate(0 10)"/>
</clipPath>
<clipPath id="clip26_6328_51537">
<rect width="2.5" height="2.5" fill="white" transform="translate(2.5 10)"/>
</clipPath>
<clipPath id="clip27_6328_51537">
<rect width="2.5" height="2.5" fill="white" transform="translate(5 10)"/>
</clipPath>
<clipPath id="clip28_6328_51537">
<rect width="2.5" height="2.5" fill="white" transform="translate(7.5 10)"/>
</clipPath>
<clipPath id="clip29_6328_51537">
<rect width="2.5" height="2.5" fill="white" transform="translate(10 10)"/>
</clipPath>
<clipPath id="clip30_6328_51537">
<rect width="2.5" height="2.5" fill="white" transform="translate(12.5 10)"/>
</clipPath>
<clipPath id="clip31_6328_51537">
<rect width="2.5" height="2.5" fill="white" transform="translate(15 10)"/>
</clipPath>
<clipPath id="clip32_6328_51537">
<rect width="2.5" height="2.5" fill="white" transform="translate(17.5 10)"/>
</clipPath>
<clipPath id="clip33_6328_51537">
<rect width="2.5" height="2.5" fill="white" transform="translate(0 12.5)"/>
</clipPath>
<clipPath id="clip34_6328_51537">
<rect width="2.5" height="2.5" fill="white" transform="translate(5 12.5)"/>
</clipPath>
<clipPath id="clip35_6328_51537">
<rect width="2.5" height="2.5" fill="white" transform="translate(10 12.5)"/>
</clipPath>
<clipPath id="clip36_6328_51537">
<rect width="2.5" height="2.5" fill="white" transform="translate(15 12.5)"/>
</clipPath>
<clipPath id="clip37_6328_51537">
<rect width="2.5" height="2.5" fill="white" transform="translate(17.5 12.5)"/>
</clipPath>
<clipPath id="clip38_6328_51537">
<rect width="2.5" height="2.5" fill="white" transform="translate(0 15)"/>
</clipPath>
<clipPath id="clip39_6328_51537">
<rect width="2.5" height="2.5" fill="white" transform="translate(2.5 15)"/>
</clipPath>
<clipPath id="clip40_6328_51537">
<rect width="2.5" height="2.5" fill="white" transform="translate(5 15)"/>
</clipPath>
<clipPath id="clip41_6328_51537">
<rect width="2.5" height="2.5" fill="white" transform="translate(7.5 15)"/>
</clipPath>
<clipPath id="clip42_6328_51537">
<rect width="2.5" height="2.5" fill="white" transform="translate(10 15)"/>
</clipPath>
<clipPath id="clip43_6328_51537">
<rect width="2.5" height="2.5" fill="white" transform="translate(12.5 15)"/>
</clipPath>
<clipPath id="clip44_6328_51537">
<rect width="2.5" height="2.5" fill="white" transform="translate(15 15)"/>
</clipPath>
<clipPath id="clip45_6328_51537">
<rect width="2.5" height="2.5" fill="white" transform="translate(17.5 15)"/>
</clipPath>
<clipPath id="clip46_6328_51537">
<path d="M0 17.5H2.5V20C1.11929 20 0 18.8807 0 17.5Z" fill="white"/>
</clipPath>
<clipPath id="clip47_6328_51537">
<rect width="2.5" height="2.5" fill="white" transform="translate(2.5 17.5)"/>
</clipPath>
<clipPath id="clip48_6328_51537">
<rect width="2.5" height="2.5" fill="white" transform="translate(5 17.5)"/>
</clipPath>
<clipPath id="clip49_6328_51537">
<rect width="2.5" height="2.5" fill="white" transform="translate(7.5 17.5)"/>
</clipPath>
<clipPath id="clip50_6328_51537">
<rect width="2.5" height="2.5" fill="white" transform="translate(10 17.5)"/>
</clipPath>
<clipPath id="clip51_6328_51537">
<rect width="2.5" height="2.5" fill="white" transform="translate(12.5 17.5)"/>
</clipPath>
<clipPath id="clip52_6328_51537">
<rect width="2.5" height="2.5" fill="white" transform="translate(15 17.5)"/>
</clipPath>
<clipPath id="clip53_6328_51537">
<path d="M17.5 17.5H20C20 18.8807 18.8807 20 17.5 20V17.5Z" fill="white"/>
</clipPath>
</defs>
</svg>
